{"glyphs":{"0":{"ha":2185,"x_min":0,"x_max":0,"o":"m 1086 -21 b 2006 88 1792 -21 1928 4 b 2126 490 2081 168 2126 322 b 2000 893 2126 658 2079 813 b 1085 1004 1921 974 1792 1004 b 185 892 418 1004 265 972 b 57 486 107 813 57 657 b 183 88 57 321 107 169 b 1086 -21 264 4 418 -21 z m 1086 271 b 608 336 731 271 651 290 b 561 486 578 368 561 424 b 611 650 561 556 579 618 b 1086 711 653 693 719 711 b 1572 650 1444 711 1529 693 b 1622 486 1604 618 1622 557 b 1572 336 1622 425 1604 368 b 1086 271 1529 289 1438 271 z "},"1":{"ha":1146,"x_min":0,"x_max":0,"o":"m 579 -1 b 1008 -1 717 -4 874 -4 b 1042 33 1033 0 1040 7 l 1043 950 b 1010 985 1043 975 1036 982 b 599 983 881 989 722 988 b 544 972 581 983 561 979 l 28 765 b 13 724 6 757 1 747 l 115 514 b 161 496 126 492 136 489 l 504 628 b 550 596 529 638 550 624 l 546 33 b 579 -1 546 8 553 1 z "},"2":{"ha":1960,"x_min":0,"x_max":0,"o":"m 72 0 b 1892 0 531 -3 1519 -3 b 1925 33 1917 0 1924 7 l 1925 244 b 1892 279 1925 269 1918 276 b 574 256 1646 279 936 258 b 540 289 549 256 542 263 b 554 311 543 297 547 304 b 1101 358 581 338 621 346 b 1849 457 1708 375 1786 393 b 1911 688 1892 500 1911 578 b 1843 907 1911 785 1888 863 b 979 1004 1768 981 1599 1004 b 136 886 340 1004 228 978 b 36 690 101 850 64 775 b 60 660 28 667 33 660 l 513 671 b 563 700 538 671 549 678 b 574 713 567 706 569 708 b 974 753 601 742 636 754 b 1394 722 1350 750 1374 742 b 1407 686 1403 714 1407 701 b 1396 653 1407 671 1403 660 b 906 614 1372 629 1318 625 b 111 507 279 597 183 574 b 33 269 54 453 33 381 b 38 33 33 192 35 92 b 72 0 39 8 46 1 z "},"3":{"ha":2051,"x_min":0,"x_max":0,"o":"m 1019 -19 b 1929 78 1747 -19 1858 10 b 2000 288 1976 125 2000 193 b 1876 500 2001 401 1969 456 b 1813 556 1842 517 1813 529 b 1861 617 1813 581 1832 592 b 1922 756 1907 657 1922 692 b 1867 908 1922 811 1908 869 b 1018 1003 1789 985 1692 1003 b 133 878 324 1003 219 963 b 36 692 100 843 60 771 b 60 660 29 667 33 661 l 474 660 b 517 682 492 660 507 668 b 531 699 521 688 525 693 b 1019 740 557 729 576 740 b 1400 718 1354 740 1383 736 b 1415 682 1411 707 1415 694 b 1401 649 1415 672 1413 660 b 1238 626 1385 632 1363 626 l 557 622 b 524 589 532 622 525 615 l 521 413 b 554 379 521 388 528 381 l 1268 379 b 1476 356 1426 379 1457 375 b 1492 318 1488 344 1492 331 b 1475 278 1492 304 1488 290 b 1021 246 1451 254 1415 246 b 538 283 594 246 565 256 b 510 324 525 296 517 308 b 469 349 501 340 488 349 l 57 346 b 29 314 32 346 26 339 b 122 108 49 226 88 143 b 1019 -19 210 19 329 -19 z "},"4":{"ha":1989,"x_min":0,"x_max":0,"o":"m 1239 0 l 1668 0 b 1701 33 1693 0 1700 7 l 1701 139 b 1735 172 1701 164 1708 171 l 1956 172 b 1989 206 1981 172 1988 179 l 1989 439 b 1956 472 1989 464 1982 471 l 1735 472 b 1701 506 1710 472 1703 479 b 1704 950 1701 683 1703 804 b 1672 983 1706 975 1699 982 l 1171 983 b 1118 972 1153 983 1135 979 b 38 485 883 869 397 658 b 13 446 21 478 13 464 l 13 206 b 46 172 13 181 19 174 l 1176 172 b 1210 139 1201 172 1208 165 b 1207 33 1210 108 1210 64 b 1239 0 1206 8 1213 1 z m 594 501 l 1169 746 b 1214 718 1200 761 1217 751 l 1207 515 b 1174 482 1207 490 1200 483 l 599 482 b 594 501 571 482 569 490 z "},"5":{"ha":1961,"x_min":0,"x_max":0,"o":"m 992 -17 b 1872 79 1718 -17 1801 8 b 1944 315 1919 125 1944 208 b 1869 550 1944 411 1919 500 b 1081 638 1801 618 1701 638 b 521 589 624 638 638 632 b 476 622 494 581 475 596 l 481 675 b 517 707 482 700 490 706 l 1860 697 b 1893 731 1885 697 1892 704 l 1893 950 b 1860 983 1893 975 1886 982 l 139 983 b 103 950 114 983 106 976 l 57 386 b 89 351 56 361 63 354 l 519 344 b 572 357 538 344 557 349 b 578 360 574 358 576 358 b 1001 381 619 378 642 382 b 1419 350 1365 379 1397 374 b 1435 304 1432 338 1435 321 b 1421 263 1435 290 1432 272 b 986 236 1401 243 1371 236 b 572 258 608 236 589 239 b 568 264 571 260 569 261 b 515 290 554 283 542 289 b 57 281 367 290 197 285 b 28 247 32 281 26 274 b 107 79 39 192 64 122 b 992 -17 182 4 310 -17 z "},"6":{"ha":2004,"x_min":0,"x_max":0,"o":"m 1004 -21 b 1899 86 1671 -21 1822 10 b 1969 293 1943 132 1969 210 b 1899 546 1969 410 1946 499 b 1143 631 1826 618 1703 631 b 610 564 763 631 728 618 b 563 594 585 553 564 567 b 599 704 564 646 574 681 b 1010 744 635 739 697 746 b 1392 708 1335 744 1365 733 b 1394 704 1392 707 1393 706 b 1449 679 1410 685 1422 681 l 1944 681 b 1968 714 1969 682 1974 688 b 1864 910 1944 796 1904 871 b 983 1003 1782 986 1636 1001 b 164 890 379 1004 240 968 b 57 479 92 815 57 658 b 158 92 57 299 88 164 b 1004 -21 239 13 399 -21 z m 1039 232 b 593 264 656 232 611 244 b 574 304 579 278 574 289 b 615 358 574 321 582 340 b 1043 393 658 383 696 393 b 1439 363 1394 393 1418 383 b 1460 307 1453 349 1460 329 b 1440 263 1460 290 1453 274 b 1039 232 1419 242 1396 232 z "},"7":{"ha":1861,"x_min":0,"x_max":0,"o":"m 453 0 l 988 0 b 1029 25 1006 0 1021 8 b 1808 675 1150 239 1426 483 b 1839 724 1831 686 1838 697 l 1842 950 b 1808 983 1842 975 1835 982 l 54 983 b 21 950 29 983 22 976 l 21 701 b 54 668 21 676 28 669 l 1111 678 b 1115 658 1139 679 1140 669 b 424 49 854 531 557 276 b 453 0 410 22 422 0 z "},"8":{"ha":2082,"x_min":0,"x_max":0,"o":"m 1047 -21 b 1963 82 1757 -21 1883 3 b 2031 294 2015 133 2031 211 b 1914 499 2031 361 2010 432 b 1906 579 1871 525 1868 540 b 1983 744 1956 626 1983 668 b 1924 911 1983 797 1972 865 b 1047 1004 1846 986 1746 1004 b 164 910 356 1004 243 985 b 104 744 117 864 104 792 b 183 576 104 683 128 635 b 176 494 219 543 219 526 b 51 288 74 419 51 367 b 119 82 51 208 67 133 b 1047 -21 199 3 317 -21 z m 1042 221 b 581 256 644 221 603 232 b 560 310 567 269 560 288 b 579 365 560 329 561 350 b 1039 394 601 386 622 394 b 1501 365 1463 394 1482 388 b 1521 310 1518 347 1521 331 b 1501 254 1521 286 1517 268 b 1042 221 1481 232 1436 221 z m 1042 617 b 621 643 663 617 643 622 b 604 683 608 657 604 668 b 622 732 604 694 606 717 b 1042 763 646 751 674 763 b 1450 732 1399 763 1429 753 b 1469 683 1467 715 1469 697 b 1451 643 1469 667 1467 657 b 1042 617 1431 624 1411 617 z "},"9":{"ha":1981,"x_min":0,"x_max":0,"o":"m 976 1007 b 82 900 310 1007 158 976 b 11 693 38 854 11 776 b 82 440 11 576 35 488 b 838 356 154 368 278 356 b 1371 422 1218 356 1253 368 b 1418 392 1396 433 1417 419 b 1382 282 1417 340 1407 306 b 971 242 1346 247 1283 240 b 589 278 646 242 615 253 b 586 282 589 279 588 281 b 532 307 571 301 558 306 l 36 306 b 13 272 11 304 7 299 b 117 76 36 190 76 115 b 997 -17 199 0 344 -15 b 1817 96 1601 -18 1740 18 b 1924 507 1889 171 1924 328 b 1822 894 1924 688 1893 822 b 976 1007 1742 974 1582 1007 z m 942 754 b 1388 722 1325 754 1369 742 b 1407 682 1401 708 1407 697 b 1365 628 1407 665 1399 646 b 938 593 1322 603 1285 593 b 542 624 586 593 563 603 b 521 679 528 638 521 657 b 540 724 521 696 528 713 b 942 754 561 744 585 754 z "}," ":{"ha":378,"x_min":0,"x_max":0,"o":""}," ":{"ha":378,"x_min":0,"x_max":0,"o":""},"A":{"ha":2317,"x_min":0,"x_max":0,"o":"m 15 0 l 506 0 b 551 21 524 0 539 7 l 653 142 b 699 163 664 156 681 163 l 1579 163 b 1625 142 1597 163 1614 156 l 1728 21 b 1774 0 1739 7 1756 0 b 2297 -1 1949 -3 2122 -3 b 2317 42 2329 0 2338 18 b 1465 960 2075 318 1735 678 b 1408 983 1449 976 1435 982 b 899 983 1286 986 1025 985 b 842 958 874 982 861 976 b -3 42 601 704 289 365 b 15 0 -24 18 -15 0 z m 924 454 l 1093 649 b 1158 651 1114 675 1138 678 b 1344 453 1217 590 1279 524 b 1329 417 1364 433 1357 417 l 940 417 b 924 454 913 417 906 433 z "},"Á":{"ha":2317,"x_min":0,"x_max":0,"o":"m 15 0 l 506 0 b 551 21 524 0 539 7 l 653 142 b 699 163 664 156 681 163 l 1579 163 b 1625 142 1597 163 1614 156 l 1728 21 b 1774 0 1739 7 1756 0 b 2297 -1 1949 -3 2122 -3 b 2317 42 2329 0 2338 18 b 1465 960 2075 318 1735 678 b 1408 983 1449 976 1435 982 b 899 983 1286 986 1025 985 b 842 958 874 982 861 976 b -3 42 601 704 289 365 b 15 0 -24 18 -15 0 z m 1032 1053 l 1176 1053 b 1221 1075 1194 1053 1210 1061 l 1403 1306 b 1382 1349 1422 1329 1414 1349 l 1189 1349 b 1147 1325 1172 1349 1157 1340 l 1006 1100 b 1032 1053 989 1074 1000 1053 z m 924 454 l 1093 649 b 1158 651 1114 675 1138 678 b 1344 453 1217 590 1279 524 b 1329 417 1364 433 1357 417 l 940 417 b 924 454 913 417 906 433 z "},"Â":{"ha":2317,"x_min":0,"x_max":0,"o":"m 15 0 l 506 0 b 551 21 524 0 539 7 l 653 142 b 699 163 664 156 681 163 l 1579 163 b 1625 142 1597 163 1614 156 l 1728 21 b 1774 0 1739 7 1756 0 b 2297 -1 1949 -3 2122 -3 b 2317 42 2329 0 2338 18 b 1465 960 2075 318 1735 678 b 1408 983 1449 976 1435 982 b 899 983 1286 986 1025 985 b 842 958 874 982 861 976 b -3 42 601 704 289 365 b 15 0 -24 18 -15 0 z m 1039 1324 l 838 1092 b 857 1050 817 1068 825 1050 l 1011 1050 b 1060 1069 1029 1050 1047 1057 l 1169 1174 l 1276 1069 b 1324 1050 1289 1057 1306 1050 l 1481 1050 b 1500 1092 1511 1050 1519 1068 l 1301 1324 b 1256 1344 1290 1338 1274 1344 l 1086 1344 b 1039 1324 1068 1344 1051 1338 z m 924 454 l 1093 649 b 1158 651 1114 675 1138 678 b 1344 453 1217 590 1279 524 b 1329 417 1364 433 1357 417 l 940 417 b 924 454 913 417 906 433 z "},"Ä":{"ha":2317,"x_min":0,"x_max":0,"o":"m 15 0 l 506 0 b 551 21 524 0 539 7 l 653 142 b 699 163 664 156 681 163 l 1579 163 b 1625 142 1597 163 1614 156 l 1728 21 b 1774 0 1739 7 1756 0 b 2297 -1 1949 -3 2122 -3 b 2317 42 2329 0 2338 18 b 1465 960 2075 318 1735 678 b 1408 983 1449 976 1435 982 b 899 983 1286 986 1025 985 b 842 958 874 982 861 976 b -3 42 601 704 289 365 b 15 0 -24 18 -15 0 z m 1233 1061 l 1428 1061 b 1461 1094 1453 1061 1461 1069 l 1461 1272 b 1428 1306 1461 1297 1454 1304 l 1233 1306 b 1200 1272 1208 1306 1201 1299 l 1200 1094 b 1233 1061 1200 1071 1208 1063 z m 911 1061 l 1106 1061 b 1139 1094 1131 1061 1138 1069 l 1139 1272 b 1106 1306 1139 1297 1132 1304 l 911 1306 b 878 1272 886 1306 879 1299 l 878 1094 b 911 1061 878 1071 886 1063 z m 924 454 l 1093 649 b 1158 651 1114 675 1138 678 b 1344 453 1217 590 1279 524 b 1329 417 1364 433 1357 417 l 940 417 b 924 454 913 417 906 433 z "},"À":{"ha":2317,"x_min":0,"x_max":0,"o":"m 15 0 l 506 0 b 551 21 524 0 539 7 l 653 142 b 699 163 664 156 681 163 l 1579 163 b 1625 142 1597 163 1614 156 l 1728 21 b 1774 0 1739 7 1756 0 b 2297 -1 1949 -3 2122 -3 b 2317 42 2329 0 2338 18 b 1465 960 2075 318 1735 678 b 1408 983 1449 976 1435 982 b 899 983 1286 986 1025 985 b 842 958 874 982 861 976 b -3 42 601 704 289 365 b 15 0 -24 18 -15 0 z m 1332 1103 l 1194 1328 b 1153 1351 1186 1343 1171 1351 l 958 1351 b 938 1307 928 1351 918 1332 l 1113 1076 b 1157 1054 1124 1063 1140 1054 l 1306 1054 b 1332 1103 1338 1054 1349 1075 z m 924 454 l 1093 649 b 1158 651 1114 675 1138 678 b 1344 453 1217 590 1279 524 b 1329 417 1364 433 1357 417 l 940 417 b 924 454 913 417 906 433 z "},"Å":{"ha":2317,"x_min":0,"x_max":0,"o":"m 15 0 l 506 0 b 551 21 524 0 539 7 l 653 142 b 699 163 664 156 681 163 l 1579 163 b 1625 142 1597 163 1614 156 l 1728 21 b 1774 0 1739 7 1756 0 b 2297 -1 1949 -3 2122 -3 b 2317 42 2329 0 2338 18 b 1465 960 2075 318 1735 678 b 1408 983 1449 976 1435 982 b 899 983 1286 986 1025 985 b 842 958 874 982 861 976 b -3 42 601 704 289 365 b 15 0 -24 18 -15 0 z m 1168 1039 b 1413 1263 1304 1039 1413 1136 b 1168 1485 1413 1389 1304 1486 b 922 1263 1031 1486 922 1389 b 1168 1039 922 1136 1031 1039 z m 1168 1197 b 1100 1263 1131 1197 1100 1225 b 1168 1328 1100 1299 1131 1328 b 1235 1263 1206 1328 1235 1299 b 1168 1197 1235 1225 1206 1197 z m 924 454 l 1093 649 b 1158 651 1114 675 1138 678 b 1344 453 1217 590 1279 524 b 1329 417 1364 433 1357 417 l 940 417 b 924 454 913 417 906 433 z "},"Ã":{"ha":2317,"x_min":0,"x_max":0,"o":"m 15 0 l 506 0 b 551 21 524 0 539 7 l 653 142 b 699 163 664 156 681 163 l 1579 163 b 1625 142 1597 163 1614 156 l 1728 21 b 1774 0 1739 7 1756 0 b 2297 -1 1949 -3 2122 -3 b 2317 42 2329 0 2338 18 b 1465 960 2075 318 1735 678 b 1408 983 1449 976 1435 982 b 899 983 1286 986 1025 985 b 842 958 874 982 861 976 b -3 42 601 704 289 365 b 15 0 -24 18 -15 0 z m 1344 1038 b 1492 1086 1406 1038 1450 1056 b 1513 1131 1506 1097 1513 1113 l 1513 1261 b 1471 1281 1513 1292 1494 1300 b 1346 1240 1433 1254 1396 1242 b 1189 1278 1294 1240 1251 1256 b 1000 1319 1131 1297 1069 1319 b 842 1267 939 1319 885 1301 b 822 1219 829 1254 822 1238 l 822 1092 b 864 1072 822 1060 840 1051 b 993 1115 903 1103 943 1115 b 1150 1079 1042 1115 1085 1100 b 1344 1038 1210 1060 1274 1038 z m 924 454 l 1093 649 b 1158 651 1114 675 1138 678 b 1344 453 1217 590 1279 524 b 1329 417 1364 433 1357 417 l 940 417 b 924 454 913 417 906 433 z "},"B":{"ha":2122,"x_min":0,"x_max":0,"o":"m 136 0 l 1575 0 b 2017 79 1864 0 1951 14 b 2071 274 2057 119 2071 192 b 1997 450 2071 347 2046 407 b 1917 531 1954 488 1917 501 b 1968 610 1917 557 1929 574 b 2028 746 2008 647 2028 694 b 1978 906 2028 800 2018 864 b 1538 983 1913 969 1838 983 l 136 983 b 101 950 113 983 104 975 b 101 33 92 706 90 326 b 136 0 103 8 111 1 z m 599 267 l 597 356 b 632 389 599 381 607 388 l 1435 389 b 1543 361 1490 389 1521 382 b 1565 300 1556 347 1565 326 b 1550 254 1565 285 1561 267 b 1433 233 1532 236 1500 233 l 632 233 b 599 267 607 233 600 242 z m 597 651 l 597 718 b 632 751 599 743 607 750 l 1411 746 b 1504 726 1465 746 1489 743 b 1518 683 1517 714 1518 699 b 1499 638 1518 665 1511 650 b 1399 613 1482 621 1458 613 l 632 618 b 597 651 607 618 600 625 z "},"C":{"ha":2178,"x_min":0,"x_max":0,"o":"m 1100 -21 b 2040 114 1818 -21 1942 15 b 2144 376 2093 165 2132 265 b 2093 432 2147 408 2125 432 l 1642 435 b 1607 408 1625 435 1613 425 b 1561 325 1596 374 1583 349 b 1101 268 1524 289 1461 268 b 608 325 704 268 640 293 b 558 485 575 358 558 410 b 608 651 558 564 575 618 b 1101 710 644 686 710 710 b 1556 656 1446 710 1519 690 b 1611 571 1581 629 1599 599 b 1649 546 1618 554 1631 546 l 2097 549 b 2146 604 2128 549 2150 572 b 2029 875 2126 724 2082 822 b 1100 1003 1939 967 1806 1003 b 179 875 381 1003 267 961 b 56 478 100 796 56 651 b 182 97 56 321 103 178 b 1100 -21 263 15 385 -21 z "},"Ç":{"ha":2178,"x_min":0,"x_max":0,"o":"m 56 478 b 182 97 56 321 103 178 b 967 -21 257 21 369 -15 l 867 -210 b 896 -260 851 -237 865 -260 l 1081 -260 b 1119 -233 1099 -260 1113 -250 l 1203 -21 b 2040 114 1831 -17 1947 21 b 2144 376 2093 165 2132 265 b 2093 432 2147 408 2125 432 l 1642 435 b 1607 408 1625 435 1613 425 b 1561 325 1596 374 1583 349 b 1101 268 1524 289 1461 268 b 608 325 704 268 640 293 b 558 485 575 358 558 410 b 608 651 558 564 575 618 b 1101 710 644 686 710 710 b 1556 656 1446 710 1519 690 b 1611 571 1581 629 1599 599 b 1649 546 1618 554 1631 546 l 2097 549 b 2146 604 2128 549 2150 572 b 2029 875 2126 724 2082 822 b 1100 1003 1939 967 1806 1003 b 179 875 381 1003 267 961 b 56 478 100 796 56 651 z "},"D":{"ha":2163,"x_min":0,"x_max":0,"o":"m 133 0 l 1363 0 b 2011 101 1818 0 1924 15 b 2106 453 2078 168 2106 279 b 1997 883 2106 681 2072 810 b 1424 983 1926 954 1847 983 l 133 983 b 100 950 108 983 101 975 b 100 33 92 690 92 304 b 133 0 100 8 108 1 z m 592 324 b 593 663 589 414 590 565 b 626 696 593 688 601 694 l 1325 696 b 1554 654 1483 696 1524 685 b 1601 483 1582 626 1601 568 b 1561 328 1601 403 1585 353 b 1340 289 1533 300 1476 289 l 626 290 b 592 324 601 290 594 299 z "},"Ð":{"ha":2163,"x_min":0,"x_max":0,"o":"m 133 0 l 1363 0 b 2011 101 1818 0 1924 15 b 2106 453 2078 168 2106 279 b 1997 883 2106 681 2072 810 b 1424 983 1926 954 1847 983 l 133 983 b 100 950 108 983 101 975 b 94 594 97 846 94 722 l -128 594 b -161 561 -153 594 -160 586 l -161 415 b -128 382 -161 390 -153 383 l 94 382 b 100 33 94 258 97 138 b 133 0 100 8 108 1 z m 592 324 l 590 382 l 803 382 b 836 415 828 382 835 389 l 836 561 b 803 594 836 586 829 593 l 592 594 l 593 663 b 626 696 593 688 601 694 l 1325 696 b 1554 654 1483 696 1524 685 b 1601 483 1582 626 1601 568 b 1561 328 1601 403 1585 353 b 1340 289 1533 300 1476 289 l 626 290 b 592 324 601 290 594 299 z "},"E":{"ha":1915,"x_min":0,"x_max":0,"o":"m 136 0 l 1800 0 b 1833 33 1824 0 1832 7 l 1832 242 b 1800 274 1832 267 1825 274 b 608 268 1597 264 861 269 b 575 301 583 268 576 276 l 575 351 b 608 385 575 376 582 385 l 1796 385 b 1829 418 1821 385 1828 393 l 1829 572 b 1796 606 1829 597 1821 604 l 608 604 b 575 638 583 604 576 611 l 575 689 b 608 721 575 713 582 721 l 1800 711 b 1832 744 1824 711 1832 719 l 1832 950 b 1799 983 1832 975 1824 982 l 136 983 b 101 950 111 983 104 975 b 101 33 92 646 90 340 b 136 0 103 8 111 1 z "},"É":{"ha":1915,"x_min":0,"x_max":0,"o":"m 136 0 l 1800 0 b 1833 33 1824 0 1832 7 l 1832 242 b 1800 274 1832 267 1825 274 b 608 268 1597 264 861 269 b 575 301 583 268 576 276 l 575 351 b 608 385 575 376 582 385 l 1796 385 b 1829 418 1821 385 1828 393 l 1829 572 b 1796 606 1829 597 1821 604 l 608 604 b 575 638 583 604 576 611 l 575 689 b 608 721 575 713 582 721 l 1800 711 b 1832 744 1824 711 1832 719 l 1832 950 b 1799 983 1832 975 1824 982 l 136 983 b 101 950 111 983 104 975 b 101 33 92 646 90 340 b 136 0 103 8 111 1 z m 819 1053 l 964 1053 b 1008 1075 982 1053 997 1061 l 1190 1306 b 1169 1349 1210 1329 1201 1349 l 976 1349 b 935 1325 960 1349 944 1340 l 793 1100 b 819 1053 776 1074 788 1053 z "},"Ê":{"ha":1915,"x_min":0,"x_max":0,"o":"m 136 0 l 1800 0 b 1833 33 1824 0 1832 7 l 1832 242 b 1800 274 1832 267 1825 274 b 608 268 1597 264 861 269 b 575 301 583 268 576 276 l 575 351 b 608 385 575 376 582 385 l 1796 385 b 1829 418 1821 385 1828 393 l 1829 572 b 1796 606 1829 597 1821 604 l 608 604 b 575 638 583 604 576 611 l 575 689 b 608 721 575 713 582 721 l 1800 711 b 1832 744 1824 711 1832 719 l 1832 950 b 1799 983 1832 975 1824 982 l 136 983 b 101 950 111 983 104 975 b 101 33 92 646 90 340 b 136 0 103 8 111 1 z m 826 1324 l 625 1092 b 644 1050 604 1068 613 1050 l 799 1050 b 847 1069 817 1050 835 1057 l 957 1174 l 1064 1069 b 1111 1050 1076 1057 1093 1050 l 1268 1050 b 1288 1092 1299 1050 1307 1068 l 1089 1324 b 1043 1344 1078 1338 1061 1344 l 874 1344 b 826 1324 856 1344 839 1338 z "},"Ë":{"ha":1915,"x_min":0,"x_max":0,"o":"m 136 0 l 1800 0 b 1833 33 1824 0 1832 7 l 1832 242 b 1800 274 1832 267 1825 274 b 608 268 1597 264 861 269 b 575 301 583 268 576 276 l 575 351 b 608 385 575 376 582 385 l 1796 385 b 1829 418 1821 385 1828 393 l 1829 572 b 1796 606 1829 597 1821 604 l 608 604 b 575 638 583 604 576 611 l 575 689 b 608 721 575 713 582 721 l 1800 711 b 1832 744 1824 711 1832 719 l 1832 950 b 1799 983 1832 975 1824 982 l 136 983 b 101 950 111 983 104 975 b 101 33 92 646 90 340 b 136 0 103 8 111 1 z m 1021 1061 l 1215 1061 b 1249 1094 1240 1061 1249 1069 l 1249 1272 b 1215 1306 1249 1297 1242 1304 l 1021 1306 b 988 1272 996 1306 989 1299 l 988 1094 b 1021 1061 988 1071 996 1063 z m 699 1061 l 893 1061 b 926 1094 918 1061 925 1069 l 926 1272 b 893 1306 926 1297 919 1304 l 699 1306 b 665 1272 674 1306 667 1299 l 665 1094 b 699 1061 665 1071 674 1063 z "},"È":{"ha":1915,"x_min":0,"x_max":0,"o":"m 136 0 l 1800 0 b 1833 33 1824 0 1832 7 l 1832 242 b 1800 274 1832 267 1825 274 b 608 268 1597 264 861 269 b 575 301 583 268 576 276 l 575 351 b 608 385 575 376 582 385 l 1796 385 b 1829 418 1821 385 1828 393 l 1829 572 b 1796 606 1829 597 1821 604 l 608 604 b 575 638 583 604 576 611 l 575 689 b 608 721 575 713 582 721 l 1800 711 b 1832 744 1824 711 1832 719 l 1832 950 b 1799 983 1832 975 1824 982 l 136 983 b 101 950 111 983 104 975 b 101 33 92 646 90 340 b 136 0 103 8 111 1 z m 1119 1103 l 982 1328 b 940 1351 974 1343 958 1351 l 746 1351 b 725 1307 715 1351 706 1332 l 900 1076 b 944 1054 911 1063 928 1054 l 1093 1054 b 1119 1103 1125 1054 1136 1075 z "},"F":{"ha":1853,"x_min":0,"x_max":0,"o":"m 135 0 l 560 0 b 593 33 585 0 593 7 b 589 236 593 100 590 179 b 622 269 589 261 596 268 l 1775 269 b 1808 303 1800 269 1807 276 l 1808 514 b 1775 547 1808 539 1800 546 l 622 547 b 588 581 597 547 590 554 l 588 654 b 622 688 589 679 596 686 b 1785 674 939 688 1583 675 b 1817 708 1810 675 1817 682 l 1811 950 b 1778 983 1811 975 1803 982 l 135 983 b 100 950 110 983 103 975 b 100 33 92 717 92 268 b 135 0 101 8 108 1 z "},"G":{"ha":2224,"x_min":0,"x_max":0,"o":"m 1010 -21 b 1824 88 1629 -21 1646 -3 b 1875 61 1849 101 1871 89 l 1881 26 b 1918 -6 1883 3 1892 -4 l 2113 -6 b 2146 28 2138 -6 2144 1 b 2146 531 2147 165 2150 385 b 2111 564 2144 556 2136 563 l 1024 564 b 989 531 999 564 992 557 l 986 390 b 1018 357 985 365 993 358 l 1583 357 b 1593 333 1607 357 1610 353 b 1572 317 1586 326 1579 321 b 1079 258 1524 281 1457 258 b 608 311 721 258 647 274 b 561 478 578 340 561 394 b 613 664 561 563 579 631 b 1099 717 649 700 700 717 b 1574 672 1497 717 1543 703 b 1588 656 1579 667 1582 663 b 1632 635 1599 642 1614 635 l 2110 636 b 2150 690 2140 636 2158 660 b 2051 865 2126 756 2092 824 b 1096 997 1956 960 1869 997 b 186 879 354 996 264 957 b 57 478 101 796 57 644 b 186 93 57 306 108 171 b 1010 -21 261 17 374 -21 z "},"H":{"ha":2149,"x_min":0,"x_max":0,"o":"m 131 0 l 565 0 b 599 33 590 0 597 7 b 601 292 600 101 599 219 b 636 325 603 317 611 324 l 1517 325 b 1550 292 1542 325 1549 318 b 1546 33 1550 217 1549 110 b 1578 0 1544 8 1551 1 l 2014 0 b 2049 33 2039 0 2047 7 b 2043 950 2057 286 2057 708 b 2008 983 2042 975 2035 982 l 1579 983 b 1546 950 1556 983 1547 975 b 1542 668 1546 865 1547 735 b 1506 635 1539 643 1531 636 l 638 635 b 603 668 613 635 606 643 b 601 950 601 735 601 865 b 567 983 601 975 593 982 l 140 983 b 104 950 115 983 107 975 b 96 33 92 701 92 283 b 131 0 97 8 104 1 z "},"I":{"ha":672,"x_min":0,"x_max":0,"o":"m 133 0 l 540 0 b 574 33 565 0 572 7 b 574 950 579 246 579 735 b 539 983 572 975 565 982 l 133 983 b 99 950 108 983 100 975 b 99 33 93 738 93 261 b 133 0 100 8 107 1 z "},"Ĳ":{"ha":2540,"x_min":0,"x_max":0,"o":"m 133 0 l 540 0 b 574 33 565 0 572 7 b 574 950 579 246 579 735 b 539 983 572 975 565 982 l 133 983 b 99 950 108 983 100 975 b 99 33 93 738 93 261 b 133 0 100 8 107 1 z m 1585 -24 b 2378 96 2100 -24 2289 6 b 2453 407 2438 158 2453 257 b 2444 950 2453 582 2447 779 b 2411 985 2444 975 2438 982 b 1982 985 2289 989 2104 989 b 1949 950 1957 983 1950 975 b 1951 442 1947 765 1954 614 b 1915 329 1951 400 1947 360 b 1585 282 1874 290 1796 282 b 1254 326 1349 282 1289 294 b 1199 438 1228 351 1213 394 b 1154 469 1190 461 1181 468 b 707 469 1032 472 835 472 b 678 436 682 469 675 461 b 804 94 696 326 729 169 b 1585 -24 892 6 1081 -24 z "},"Í":{"ha":672,"x_min":0,"x_max":0,"o":"m 133 0 l 540 0 b 574 33 565 0 572 7 b 574 950 579 246 579 735 b 539 983 572 975 565 982 l 133 983 b 99 950 108 983 100 975 b 99 33 93 738 93 261 b 133 0 100 8 107 1 z m 201 1053 l 346 1053 b 390 1075 364 1053 379 1061 l 572 1306 b 551 1349 592 1329 583 1349 l 358 1349 b 317 1325 342 1349 326 1340 l 175 1100 b 201 1053 158 1074 169 1053 z "},"Î":{"ha":672,"x_min":0,"x_max":0,"o":"m 133 0 l 540 0 b 574 33 565 0 572 7 b 574 950 579 246 579 735 b 539 983 572 975 565 982 l 133 983 b 99 950 108 983 100 975 b 99 33 93 738 93 261 b 133 0 100 8 107 1 z m 208 1324 l 7 1092 b 26 1050 -14 1068 -6 1050 l 181 1050 b 229 1069 199 1050 217 1057 l 339 1174 l 446 1069 b 493 1050 458 1057 475 1050 l 650 1050 b 669 1092 681 1050 689 1068 l 471 1324 b 425 1344 460 1338 443 1344 l 256 1344 b 208 1324 238 1344 221 1338 z "},"Ï":{"ha":672,"x_min":0,"x_max":0,"o":"m 133 0 l 540 0 b 574 33 565 0 572 7 b 574 950 579 246 579 735 b 539 983 572 975 565 982 l 133 983 b 99 950 108 983 100 975 b 99 33 93 738 93 261 b 133 0 100 8 107 1 z m 403 1061 l 597 1061 b 631 1094 622 1061 631 1069 l 631 1272 b 597 1306 631 1297 624 1304 l 403 1306 b 369 1272 378 1306 371 1299 l 369 1094 b 403 1061 369 1071 378 1063 z m 81 1061 l 275 1061 b 308 1094 300 1061 307 1069 l 308 1272 b 275 1306 308 1297 301 1304 l 81 1306 b 47 1272 56 1306 49 1299 l 47 1094 b 81 1061 47 1071 56 1063 z "},"Ì":{"ha":672,"x_min":0,"x_max":0,"o":"m 133 0 l 540 0 b 574 33 565 0 572 7 b 574 950 579 246 579 735 b 539 983 572 975 565 982 l 133 983 b 99 950 108 983 100 975 b 99 33 93 738 93 261 b 133 0 100 8 107 1 z m 501 1103 l 364 1328 b 322 1351 356 1343 340 1351 l 128 1351 b 107 1307 97 1351 88 1332 l 282 1076 b 326 1054 293 1063 310 1054 l 475 1054 b 501 1103 507 1054 518 1075 z "},"J":{"ha":1868,"x_min":0,"x_max":0,"o":"m 913 -24 b 1706 96 1428 -24 1617 6 b 1781 407 1765 158 1781 257 b 1772 950 1781 582 1775 779 b 1739 985 1772 975 1765 982 b 1310 985 1617 989 1432 989 b 1276 950 1285 983 1278 975 b 1279 442 1275 765 1282 614 b 1243 329 1279 400 1275 360 b 913 282 1201 290 1124 282 b 582 326 676 282 617 294 b 526 438 556 351 540 394 b 482 469 518 461 508 468 b 35 469 360 472 163 472 b 6 436 10 469 3 461 b 132 94 24 326 57 169 b 913 -24 219 6 408 -24 z "},"K":{"ha":2018,"x_min":0,"x_max":0,"o":"m 132 0 l 558 0 b 592 33 583 0 590 7 b 582 432 592 125 582 299 b 624 458 581 467 596 478 b 1385 15 822 343 1169 151 b 1436 0 1400 6 1418 0 l 2061 0 b 2069 31 2092 0 2096 14 b 1224 536 1896 140 1551 343 b 1225 585 1200 551 1200 572 b 1968 958 1497 726 1815 885 b 1963 983 1997 972 1994 983 l 1361 983 b 1308 971 1343 983 1325 979 b 632 646 1010 819 754 703 b 586 671 603 629 585 638 l 593 950 b 558 983 592 975 585 982 l 133 983 b 99 950 108 983 100 975 b 97 33 90 713 89 267 b 132 0 99 8 107 1 z "},"L":{"ha":1946,"x_min":0,"x_max":0,"o":"m 136 0 l 1883 0 b 1917 33 1908 0 1915 7 l 1917 293 b 1883 325 1917 318 1910 325 b 603 315 1653 317 918 315 b 569 347 578 314 571 322 b 578 950 569 519 571 754 b 546 983 579 975 572 982 l 135 983 b 100 950 110 983 101 975 b 101 33 93 665 93 274 b 136 0 103 8 111 1 z "},"M":{"ha":2504,"x_min":0,"x_max":0,"o":"m 129 0 l 517 0 b 550 33 542 0 549 7 l 549 510 b 581 524 547 544 560 551 b 1033 21 711 372 863 210 b 1079 0 1046 7 1061 0 l 1374 0 b 1419 21 1392 0 1408 7 b 1876 524 1569 188 1757 393 b 1911 513 1899 550 1913 546 l 1910 33 b 1943 0 1910 8 1917 1 l 2368 0 b 2404 33 2393 0 2401 7 b 2404 950 2413 214 2411 778 b 2369 983 2404 975 2396 982 l 1869 983 b 1821 964 1851 983 1835 976 b 1306 419 1679 828 1450 574 b 1269 389 1288 401 1286 389 b 1238 415 1256 389 1251 400 b 738 963 1094 571 922 768 b 692 983 725 976 708 983 l 135 983 b 100 950 111 983 103 975 b 96 33 93 761 93 239 b 129 0 96 8 103 1 z "},"N":{"ha":2196,"x_min":0,"x_max":0,"o":"m 132 0 b 540 -1 242 -3 439 -3 b 574 33 565 0 572 7 b 565 533 574 178 565 396 b 606 558 563 568 578 578 b 1501 14 775 450 1222 176 b 1553 -1 1517 6 1535 0 b 2063 -1 1713 -6 1942 -7 b 2097 33 2088 0 2096 8 b 2099 950 2103 228 2103 714 b 2064 985 2097 975 2090 982 b 1647 985 1943 988 1760 988 b 1614 950 1622 983 1615 975 b 1626 483 1614 778 1624 608 b 1586 457 1629 449 1614 439 b 718 968 1397 568 993 803 b 667 983 703 978 685 983 b 133 983 524 986 276 986 b 99 950 108 983 101 975 b 99 33 93 700 93 271 b 132 0 99 8 107 1 z "},"Ñ":{"ha":2196,"x_min":0,"x_max":0,"o":"m 132 0 b 540 -1 242 -3 439 -3 b 574 33 565 0 572 7 b 565 533 574 178 565 396 b 606 558 563 568 578 578 b 1501 14 775 450 1222 176 b 1553 -1 1517 6 1535 0 b 2063 -1 1713 -6 1942 -7 b 2097 33 2088 0 2096 8 b 2099 950 2103 228 2103 714 b 2064 985 2097 975 2090 982 b 1647 985 1943 988 1760 988 b 1614 950 1622 983 1615 975 b 1626 483 1614 778 1624 608 b 1586 457 1629 449 1614 439 b 718 968 1397 568 993 803 b 667 983 703 978 685 983 b 133 983 524 986 276 986 b 99 950 108 983 101 975 b 99 33 93 700 93 271 b 132 0 99 8 107 1 z m 1263 1038 b 1410 1086 1324 1038 1368 1056 b 1431 1131 1424 1097 1431 1113 l 1431 1261 b 1389 1281 1431 1292 1413 1300 b 1264 1240 1351 1254 1314 1242 b 1107 1278 1213 1240 1169 1256 b 918 1319 1049 1297 988 1319 b 760 1267 857 1319 803 1301 b 740 1219 747 1254 740 1238 l 740 1092 b 782 1072 740 1060 758 1051 b 911 1115 821 1103 861 1115 b 1068 1079 960 1115 1003 1100 b 1263 1038 1128 1060 1192 1038 z "},"O":{"ha":2185,"x_min":0,"x_max":0,"o":"m 1086 -21 b 2006 88 1792 -21 1928 4 b 2126 490 2081 168 2126 322 b 2000 893 2126 658 2079 813 b 1085 1004 1921 974 1792 1004 b 185 892 418 1004 265 972 b 57 486 107 813 57 657 b 183 88 57 321 107 169 b 1086 -21 264 4 418 -21 z m 1086 271 b 608 336 731 271 651 290 b 561 486 578 368 561 424 b 611 650 561 556 579 618 b 1086 711 653 693 719 711 b 1572 650 1444 711 1529 693 b 1622 486 1604 618 1622 557 b 1572 336 1622 425 1604 368 b 1086 271 1529 289 1438 271 z "},"Ó":{"ha":2185,"x_min":0,"x_max":0,"o":"m 1086 -21 b 2006 88 1792 -21 1928 4 b 2126 490 2081 168 2126 322 b 2000 893 2126 658 2079 813 b 1085 1004 1921 974 1792 1004 b 185 892 418 1004 265 972 b 57 486 107 813 57 657 b 183 88 57 321 107 169 b 1086 -21 264 4 418 -21 z m 1086 271 b 608 336 731 271 651 290 b 561 486 578 368 561 424 b 611 650 561 556 579 618 b 1086 711 653 693 719 711 b 1572 650 1444 711 1529 693 b 1622 486 1604 618 1622 557 b 1572 336 1622 425 1604 368 b 1086 271 1529 289 1438 271 z m 957 1053 l 1101 1053 b 1146 1075 1119 1053 1135 1061 l 1328 1306 b 1307 1349 1347 1329 1339 1349 l 1114 1349 b 1072 1325 1097 1349 1082 1340 l 931 1100 b 957 1053 914 1074 925 1053 z "},"Ô":{"ha":2185,"x_min":0,"x_max":0,"o":"m 1086 -21 b 2006 88 1792 -21 1928 4 b 2126 490 2081 168 2126 322 b 2000 893 2126 658 2079 813 b 1085 1004 1921 974 1792 1004 b 185 892 418 1004 265 972 b 57 486 107 813 57 657 b 183 88 57 321 107 169 b 1086 -21 264 4 418 -21 z m 1086 271 b 608 336 731 271 651 290 b 561 486 578 368 561 424 b 611 650 561 556 579 618 b 1086 711 653 693 719 711 b 1572 650 1444 711 1529 693 b 1622 486 1604 618 1622 557 b 1572 336 1622 425 1604 368 b 1086 271 1529 289 1438 271 z m 963 1324 l 761 1092 b 781 1050 740 1068 749 1050 l 935 1050 b 983 1069 953 1050 971 1057 l 1093 1174 l 1200 1069 b 1247 1050 1213 1057 1229 1050 l 1404 1050 b 1424 1092 1435 1050 1443 1068 l 1225 1324 b 1179 1344 1214 1338 1197 1344 l 1010 1344 b 963 1324 992 1344 975 1338 z "},"Ö":{"ha":2185,"x_min":0,"x_max":0,"o":"m 1086 -21 b 2006 88 1792 -21 1928 4 b 2126 490 2081 168 2126 322 b 2000 893 2126 658 2079 813 b 1085 1004 1921 974 1792 1004 b 185 892 418 1004 265 972 b 57 486 107 813 57 657 b 183 88 57 321 107 169 b 1086 -21 264 4 418 -21 z m 1086 271 b 608 336 731 271 651 290 b 561 486 578 368 561 424 b 611 650 561 556 579 618 b 1086 711 653 693 719 711 b 1572 650 1444 711 1529 693 b 1622 486 1604 618 1622 557 b 1572 336 1622 425 1604 368 b 1086 271 1529 289 1438 271 z m 1157 1061 l 1351 1061 b 1385 1094 1376 1061 1385 1069 l 1385 1272 b 1351 1306 1385 1297 1378 1304 l 1157 1306 b 1124 1272 1132 1306 1125 1299 l 1124 1094 b 1157 1061 1124 1071 1132 1063 z m 835 1061 l 1029 1061 b 1063 1094 1054 1061 1061 1069 l 1063 1272 b 1029 1306 1063 1297 1056 1304 l 835 1306 b 801 1272 810 1306 803 1299 l 801 1094 b 835 1061 801 1071 810 1063 z "},"Ò":{"ha":2185,"x_min":0,"x_max":0,"o":"m 1086 -21 b 2006 88 1792 -21 1928 4 b 2126 490 2081 168 2126 322 b 2000 893 2126 658 2079 813 b 1085 1004 1921 974 1792 1004 b 185 892 418 1004 265 972 b 57 486 107 813 57 657 b 183 88 57 321 107 169 b 1086 -21 264 4 418 -21 z m 1086 271 b 608 336 731 271 651 290 b 561 486 578 368 561 424 b 611 650 561 556 579 618 b 1086 711 653 693 719 711 b 1572 650 1444 711 1529 693 b 1622 486 1604 618 1622 557 b 1572 336 1622 425 1604 368 b 1086 271 1529 289 1438 271 z m 1256 1103 l 1118 1328 b 1076 1351 1110 1343 1094 1351 l 882 1351 b 861 1307 851 1351 842 1332 l 1036 1076 b 1081 1054 1047 1063 1064 1054 l 1229 1054 b 1256 1103 1261 1054 1272 1075 z "},"Ø":{"ha":2185,"x_min":0,"x_max":0,"o":"m 1086 -21 b 2006 88 1792 -21 1928 4 b 2126 490 2081 168 2126 322 b 2000 893 2126 658 2079 813 b 1647 992 1950 944 1878 976 l 1776 1133 b 1758 1175 1799 1157 1790 1175 l 1636 1175 b 1590 1154 1618 1175 1601 1167 l 1450 1000 b 1085 1004 1350 1003 1229 1004 b 185 892 418 1004 265 972 b 57 486 107 813 57 657 b 183 88 57 321 107 169 b 531 -8 233 35 314 6 l 414 -137 b 433 -179 393 -161 401 -179 l 560 -179 b 607 -158 578 -179 594 -172 l 735 -17 b 1086 -21 832 -19 949 -21 z m 1086 271 l 996 271 l 1388 703 b 1572 650 1503 694 1546 676 b 1622 486 1604 618 1622 557 b 1572 336 1622 425 1604 368 b 1086 271 1529 289 1438 271 z m 561 486 b 611 650 561 556 579 618 b 1086 711 653 693 719 711 l 1186 711 l 793 279 b 608 336 676 289 636 307 b 561 486 578 368 561 424 z "},"Õ":{"ha":2185,"x_min":0,"x_max":0,"o":"m 1086 -21 b 2006 88 1792 -21 1928 4 b 2126 490 2081 168 2126 322 b 2000 893 2126 658 2079 813 b 1085 1004 1921 974 1792 1004 b 185 892 418 1004 265 972 b 57 486 107 813 57 657 b 183 88 57 321 107 169 b 1086 -21 264 4 418 -21 z m 1086 271 b 608 336 731 271 651 290 b 561 486 578 368 561 424 b 611 650 561 556 579 618 b 1086 711 653 693 719 711 b 1572 650 1444 711 1529 693 b 1622 486 1604 618 1622 557 b 1572 336 1622 425 1604 368 b 1086 271 1529 289 1438 271 z m 1269 1038 b 1417 1086 1331 1038 1375 1056 b 1438 1131 1431 1097 1438 1113 l 1438 1261 b 1396 1281 1438 1292 1419 1300 b 1271 1240 1358 1254 1321 1242 b 1114 1278 1219 1240 1176 1256 b 925 1319 1056 1297 994 1319 b 767 1267 864 1319 810 1301 b 747 1219 754 1254 747 1238 l 747 1092 b 789 1072 747 1060 765 1051 b 918 1115 828 1103 868 1115 b 1075 1079 967 1115 1010 1100 b 1269 1038 1135 1060 1199 1038 z "},"Œ":{"ha":3453,"x_min":0,"x_max":0,"o":"m 1086 -21 b 1764 0 1424 -21 1631 -15 l 3333 0 b 3367 33 3357 0 3365 7 l 3365 242 b 3333 274 3365 267 3358 274 b 2142 268 3131 264 2394 269 b 2108 301 2117 268 2110 276 l 2108 313 b 2119 381 2113 335 2117 357 b 2142 385 2125 383 2132 385 l 3329 385 b 3363 418 3354 385 3361 393 l 3363 572 b 3329 606 3363 597 3354 604 l 2142 604 b 2118 610 2131 604 2124 606 l 2108 665 l 2108 689 b 2142 721 2108 713 2115 721 l 3333 711 b 3365 744 3357 711 3365 719 l 3365 950 b 3332 983 3365 975 3357 982 l 1740 983 b 1085 1004 1608 997 1407 1004 b 185 892 418 1004 265 972 b 57 486 107 813 57 657 b 183 88 57 321 107 169 b 1086 -21 264 4 418 -21 z m 1086 271 b 608 336 731 271 651 290 b 561 486 578 368 561 424 b 611 650 561 556 579 618 b 1086 711 653 693 719 711 b 1572 650 1444 711 1529 693 b 1622 486 1604 618 1622 557 b 1572 336 1622 425 1604 368 b 1086 271 1529 289 1438 271 z "},"P":{"ha":2022,"x_min":0,"x_max":0,"o":"m 133 0 l 557 0 b 590 33 582 0 589 7 b 590 203 589 79 590 143 b 624 236 590 228 599 235 l 1406 236 b 1889 325 1721 236 1824 260 b 1981 601 1947 382 1982 475 b 1894 892 1979 744 1944 842 b 1403 983 1821 965 1733 983 l 133 983 b 100 950 110 983 101 975 b 99 33 92 708 92 231 b 133 0 100 8 108 1 z m 585 574 l 586 668 b 621 701 586 692 594 700 l 1304 701 b 1464 679 1421 701 1444 697 b 1482 615 1482 663 1482 638 b 1464 563 1482 592 1478 574 b 1313 540 1446 544 1408 540 l 619 540 b 585 574 594 540 588 549 z "},"Q":{"ha":2135,"x_min":0,"x_max":0,"o":"m 1326 -383 b 1965 -375 1586 -385 1844 -381 b 2000 -340 1990 -374 1999 -367 l 2008 -115 b 1976 -81 2010 -90 2003 -82 b 1457 -86 1863 -82 1640 -86 b 1344 -29 1372 -86 1346 -81 l 1344 -10 b 2006 96 1828 -3 1939 25 b 2126 493 2081 175 2126 326 b 2000 890 2126 658 2079 810 b 1085 999 1921 969 1792 999 b 185 889 418 999 265 968 b 57 489 107 810 57 657 b 183 96 57 325 107 176 b 846 -10 253 25 378 -3 l 846 -72 b 1326 -383 846 -322 974 -382 z m 1086 276 b 608 340 731 276 651 296 b 561 489 578 372 561 426 b 611 650 561 557 579 618 b 1086 710 653 693 719 710 b 1572 650 1444 710 1529 693 b 1622 489 1604 618 1622 558 b 1572 340 1622 428 1604 372 b 1086 276 1529 294 1438 276 z "},"R":{"ha":2139,"x_min":0,"x_max":0,"o":"m 135 0 l 563 0 b 597 33 588 0 596 7 b 594 183 596 83 593 133 b 631 217 596 208 604 215 l 1411 217 b 1544 188 1494 217 1522 211 b 1569 115 1565 168 1569 139 l 1571 33 b 1604 0 1571 8 1578 1 l 2032 0 b 2067 33 2057 0 2064 7 l 2064 157 b 1994 332 2064 236 2039 297 b 1938 396 1960 361 1938 369 b 1982 468 1938 424 1957 443 b 2060 671 2038 524 2058 575 b 1993 894 2061 769 2039 849 b 1489 983 1926 963 1867 983 l 135 983 b 100 950 110 983 101 975 b 100 33 93 694 93 268 b 135 0 100 8 108 1 z m 592 542 b 594 672 590 579 592 632 b 629 706 596 697 603 704 l 1351 706 b 1528 675 1483 706 1506 696 b 1550 601 1544 660 1550 633 b 1528 538 1550 572 1542 551 b 1356 508 1508 518 1486 508 l 625 508 b 592 542 601 508 593 515 z "},"S":{"ha":1942,"x_min":0,"x_max":0,"o":"m 975 -18 b 1825 89 1601 -18 1746 8 b 1896 315 1871 133 1896 214 b 1832 543 1896 419 1875 500 b 1125 642 1758 617 1710 638 b 553 669 603 644 575 647 b 538 710 540 682 538 696 b 554 747 538 724 542 739 b 988 768 579 764 603 768 b 1369 733 1311 768 1349 754 l 1378 725 b 1429 697 1390 704 1403 699 l 1864 699 b 1889 731 1889 699 1894 706 b 1808 897 1867 811 1842 864 b 967 999 1743 963 1653 999 b 136 899 315 999 207 968 b 63 668 88 851 63 768 b 126 449 63 571 83 492 b 796 350 182 392 240 357 b 1413 317 1358 343 1389 340 b 1426 272 1424 304 1426 288 b 1415 236 1426 257 1424 244 b 957 213 1399 219 1354 213 b 596 243 653 213 618 222 l 581 265 b 531 294 568 288 556 293 l 71 294 b 46 263 46 294 40 288 b 131 92 69 185 93 129 b 975 -18 206 17 319 -18 z "},"ẞ":{"ha":3897,"x_min":0,"x_max":0,"o":"m 975 -18 b 1825 89 1601 -18 1746 8 b 1896 315 1871 133 1896 214 b 1832 543 1896 419 1875 500 b 1125 642 1758 617 1710 638 b 553 669 603 644 575 647 b 538 710 540 682 538 696 b 554 747 538 724 542 739 b 988 768 579 764 603 768 b 1369 733 1311 768 1349 754 l 1378 725 b 1429 697 1390 704 1403 699 l 1864 699 b 1889 731 1889 699 1894 706 b 1808 897 1867 811 1842 864 b 967 999 1743 963 1653 999 b 136 899 315 999 207 968 b 63 668 88 851 63 768 b 126 449 63 571 83 492 b 796 350 182 392 240 357 b 1413 317 1358 343 1389 340 b 1426 272 1424 304 1426 288 b 1415 236 1426 257 1424 244 b 957 213 1399 219 1354 213 b 596 243 653 213 618 222 l 581 265 b 531 294 568 288 556 293 l 71 294 b 46 263 46 294 40 288 b 131 92 69 185 93 129 b 975 -18 206 17 319 -18 z m 2932 -18 b 3782 89 3558 -18 3703 8 b 3853 315 3828 133 3853 214 b 3789 543 3853 419 3832 500 b 3082 642 3715 617 3667 638 b 2510 669 2560 644 2532 647 b 2494 710 2497 682 2494 696 b 2511 747 2494 724 2499 739 b 2944 768 2536 764 2560 768 b 3326 733 3268 768 3306 754 l 3335 725 b 3386 697 3347 704 3360 699 l 3821 699 b 3846 731 3846 699 3851 706 b 3765 897 3824 811 3799 864 b 2924 999 3700 963 3610 999 b 2093 899 2272 999 2164 968 b 2019 668 2044 851 2019 768 b 2083 449 2019 571 2040 492 b 2753 350 2139 392 2197 357 b 3369 317 3315 343 3346 340 b 3383 272 3381 304 3383 288 b 3372 236 3383 257 3381 244 b 2914 213 3356 219 3311 213 b 2553 243 2610 213 2575 222 l 2538 265 b 2488 294 2525 288 2513 293 l 2028 294 b 2003 263 2003 294 1997 288 b 2088 92 2026 185 2050 129 b 2932 -18 2163 17 2276 -18 z "},"T":{"ha":2008,"x_min":0,"x_max":0,"o":"m 803 0 b 1233 0 919 -4 1101 -4 b 1267 35 1258 1 1265 8 b 1263 649 1267 242 1263 454 b 1296 682 1263 674 1269 681 l 1954 678 b 1988 711 1979 678 1986 685 l 1988 950 b 1953 983 1988 975 1979 982 b 47 983 1593 986 515 986 b 14 950 22 983 15 975 b 14 713 13 889 13 783 b 47 679 14 688 22 681 l 742 682 b 775 649 765 682 774 674 l 769 35 b 803 0 769 10 776 3 z "},"U":{"ha":1965,"x_min":0,"x_max":0,"o":"m 986 -21 b 1783 94 1544 -22 1694 6 b 1878 417 1843 154 1878 239 b 1871 950 1878 590 1871 783 b 1836 983 1869 975 1863 982 b 1408 983 1689 985 1536 985 b 1375 950 1383 983 1376 975 l 1376 463 b 1344 338 1376 400 1372 364 b 986 281 1308 301 1235 281 b 624 333 735 281 653 304 b 590 463 593 365 590 399 b 594 950 590 619 596 818 b 561 983 594 975 586 982 b 129 983 435 985 249 985 b 94 950 104 983 96 975 b 88 415 88 818 88 592 b 179 111 88 250 113 176 b 986 -21 272 18 424 -19 z "},"Ú":{"ha":1965,"x_min":0,"x_max":0,"o":"m 986 -21 b 1783 94 1544 -22 1694 6 b 1878 417 1843 154 1878 239 b 1871 950 1878 590 1871 783 b 1836 983 1869 975 1863 982 b 1408 983 1689 985 1536 985 b 1375 950 1383 983 1376 975 l 1376 463 b 1344 338 1376 400 1372 364 b 986 281 1308 301 1235 281 b 624 333 735 281 653 304 b 590 463 593 365 590 399 b 594 950 590 619 596 818 b 561 983 594 975 586 982 b 129 983 435 985 249 985 b 94 950 104 983 96 975 b 88 415 88 818 88 592 b 179 111 88 250 113 176 b 986 -21 272 18 424 -19 z m 847 1053 l 992 1053 b 1036 1075 1010 1053 1025 1061 l 1218 1306 b 1197 1349 1238 1329 1229 1349 l 1004 1349 b 963 1325 988 1349 972 1340 l 821 1100 b 847 1053 804 1074 815 1053 z "},"Û":{"ha":1965,"x_min":0,"x_max":0,"o":"m 986 -21 b 1783 94 1544 -22 1694 6 b 1878 417 1843 154 1878 239 b 1871 950 1878 590 1871 783 b 1836 983 1869 975 1863 982 b 1408 983 1689 985 1536 985 b 1375 950 1383 983 1376 975 l 1376 463 b 1344 338 1376 400 1372 364 b 986 281 1308 301 1235 281 b 624 333 735 281 653 304 b 590 463 593 365 590 399 b 594 950 590 619 596 818 b 561 983 594 975 586 982 b 129 983 435 985 249 985 b 94 950 104 983 96 975 b 88 415 88 818 88 592 b 179 111 88 250 113 176 b 986 -21 272 18 424 -19 z m 853 1324 l 651 1092 b 671 1050 631 1068 639 1050 l 825 1050 b 874 1069 843 1050 861 1057 l 983 1174 l 1090 1069 b 1138 1050 1103 1057 1119 1050 l 1294 1050 b 1314 1092 1325 1050 1333 1068 l 1115 1324 b 1069 1344 1104 1338 1088 1344 l 900 1344 b 853 1324 882 1344 865 1338 z "},"Ü":{"ha":1965,"x_min":0,"x_max":0,"o":"m 986 -21 b 1783 94 1544 -22 1694 6 b 1878 417 1843 154 1878 239 b 1871 950 1878 590 1871 783 b 1836 983 1869 975 1863 982 b 1408 983 1689 985 1536 985 b 1375 950 1383 983 1376 975 l 1376 463 b 1344 338 1376 400 1372 364 b 986 281 1308 301 1235 281 b 624 333 735 281 653 304 b 590 463 593 365 590 399 b 594 950 590 619 596 818 b 561 983 594 975 586 982 b 129 983 435 985 249 985 b 94 950 104 983 96 975 b 88 415 88 818 88 592 b 179 111 88 250 113 176 b 986 -21 272 18 424 -19 z m 1047 1061 l 1242 1061 b 1275 1094 1267 1061 1275 1069 l 1275 1272 b 1242 1306 1275 1297 1268 1304 l 1047 1306 b 1014 1272 1022 1306 1015 1299 l 1014 1094 b 1047 1061 1014 1071 1022 1063 z m 725 1061 l 919 1061 b 953 1094 944 1061 951 1069 l 953 1272 b 919 1306 953 1297 946 1304 l 725 1306 b 692 1272 700 1306 693 1299 l 692 1094 b 725 1061 692 1071 700 1063 z "},"Ù":{"ha":1965,"x_min":0,"x_max":0,"o":"m 986 -21 b 1783 94 1544 -22 1694 6 b 1878 417 1843 154 1878 239 b 1871 950 1878 590 1871 783 b 1836 983 1869 975 1863 982 b 1408 983 1689 985 1536 985 b 1375 950 1383 983 1376 975 l 1376 463 b 1344 338 1376 400 1372 364 b 986 281 1308 301 1235 281 b 624 333 735 281 653 304 b 590 463 593 365 590 399 b 594 950 590 619 596 818 b 561 983 594 975 586 982 b 129 983 435 985 249 985 b 94 950 104 983 96 975 b 88 415 88 818 88 592 b 179 111 88 250 113 176 b 986 -21 272 18 424 -19 z m 1147 1103 l 1010 1328 b 968 1351 1001 1343 986 1351 l 774 1351 b 753 1307 743 1351 733 1332 l 928 1076 b 972 1054 939 1063 956 1054 l 1121 1054 b 1147 1103 1153 1054 1164 1075 z "},"V":{"ha":2349,"x_min":0,"x_max":0,"o":"m 943 -3 b 1472 -3 1108 -7 1354 -7 b 1518 19 1490 -1 1507 6 b 2332 940 1703 219 2044 613 b 2313 983 2353 964 2344 982 b 1796 985 2154 988 1903 988 b 1750 963 1778 983 1763 975 b 1239 401 1569 760 1385 553 b 1206 374 1224 383 1222 374 b 1175 400 1193 374 1188 383 b 649 961 1031 550 825 767 b 601 983 636 975 619 982 b 35 983 446 988 221 988 b 18 943 3 982 -4 965 b 896 19 293 672 678 249 b 943 -3 908 6 925 -1 z "},"W":{"ha":3415,"x_min":0,"x_max":0,"o":"m 736 -1 b 1271 -1 890 -6 1139 -6 b 1315 22 1289 0 1306 8 b 1668 513 1390 124 1576 388 b 1731 518 1688 540 1710 544 b 2160 21 1829 410 2017 188 b 2206 0 2171 7 2188 0 b 2743 -1 2338 -3 2594 -6 b 2786 24 2761 0 2776 8 b 3397 935 2888 172 3257 707 b 3369 983 3413 963 3401 983 b 2906 983 3232 983 3021 985 b 2864 960 2888 983 2872 975 b 2497 431 2799 856 2590 561 b 2438 426 2479 401 2457 399 b 2001 961 2338 546 2125 801 b 1957 985 1992 975 1975 983 b 1517 983 1853 990 1644 988 b 1472 961 1499 983 1483 975 b 1086 428 1381 832 1181 551 b 1024 424 1067 400 1044 397 b 618 961 924 542 715 832 b 574 983 608 975 592 983 b 44 983 418 982 207 985 b 19 938 13 983 1 964 b 690 21 185 701 524 222 b 736 -1 701 7 718 0 z "},"Ẃ":{"ha":3415,"x_min":0,"x_max":0,"o":"m 736 -1 b 1271 -1 890 -6 1139 -6 b 1315 22 1289 0 1306 8 b 1668 513 1390 124 1576 388 b 1731 518 1688 540 1710 544 b 2160 21 1829 410 2017 188 b 2206 0 2171 7 2188 0 b 2743 -1 2338 -3 2594 -6 b 2786 24 2761 0 2776 8 b 3397 935 2888 172 3257 707 b 3369 983 3413 963 3401 983 b 2906 983 3232 983 3021 985 b 2864 960 2888 983 2872 975 b 2497 431 2799 856 2590 561 b 2438 426 2479 401 2457 399 b 2001 961 2338 546 2125 801 b 1957 985 1992 975 1975 983 b 1517 983 1853 990 1644 988 b 1472 961 1499 983 1483 975 b 1086 428 1381 832 1181 551 b 1024 424 1067 400 1044 397 b 618 961 924 542 715 832 b 574 983 608 975 592 983 b 44 983 418 982 207 985 b 19 938 13 983 1 964 b 690 21 185 701 524 222 b 736 -1 701 7 718 0 z m 1585 1053 l 1729 1053 b 1774 1075 1747 1053 1763 1061 l 1956 1306 b 1935 1349 1975 1329 1967 1349 l 1742 1349 b 1700 1325 1725 1349 1710 1340 l 1558 1100 b 1585 1053 1542 1074 1553 1053 z "},"Ŵ":{"ha":3415,"x_min":0,"x_max":0,"o":"m 736 -1 b 1271 -1 890 -6 1139 -6 b 1315 22 1289 0 1306 8 b 1668 513 1390 124 1576 388 b 1731 518 1688 540 1710 544 b 2160 21 1829 410 2017 188 b 2206 0 2171 7 2188 0 b 2743 -1 2338 -3 2594 -6 b 2786 24 2761 0 2776 8 b 3397 935 2888 172 3257 707 b 3369 983 3413 963 3401 983 b 2906 983 3232 983 3021 985 b 2864 960 2888 983 2872 975 b 2497 431 2799 856 2590 561 b 2438 426 2479 401 2457 399 b 2001 961 2338 546 2125 801 b 1957 985 1992 975 1975 983 b 1517 983 1853 990 1644 988 b 1472 961 1499 983 1483 975 b 1086 428 1381 832 1181 551 b 1024 424 1067 400 1044 397 b 618 961 924 542 715 832 b 574 983 608 975 592 983 b 44 983 418 982 207 985 b 19 938 13 983 1 964 b 690 21 185 701 524 222 b 736 -1 701 7 718 0 z m 1592 1324 l 1390 1092 b 1410 1050 1369 1068 1378 1050 l 1564 1050 b 1613 1069 1582 1050 1600 1057 l 1722 1174 l 1829 1069 b 1876 1050 1842 1057 1858 1050 l 2033 1050 b 2053 1092 2064 1050 2072 1068 l 1854 1324 b 1808 1344 1843 1338 1826 1344 l 1639 1344 b 1592 1324 1621 1344 1604 1338 z "},"Ẅ":{"ha":3415,"x_min":0,"x_max":0,"o":"m 736 -1 b 1271 -1 890 -6 1139 -6 b 1315 22 1289 0 1306 8 b 1668 513 1390 124 1576 388 b 1731 518 1688 540 1710 544 b 2160 21 1829 410 2017 188 b 2206 0 2171 7 2188 0 b 2743 -1 2338 -3 2594 -6 b 2786 24 2761 0 2776 8 b 3397 935 2888 172 3257 707 b 3369 983 3413 963 3401 983 b 2906 983 3232 983 3021 985 b 2864 960 2888 983 2872 975 b 2497 431 2799 856 2590 561 b 2438 426 2479 401 2457 399 b 2001 961 2338 546 2125 801 b 1957 985 1992 975 1975 983 b 1517 983 1853 990 1644 988 b 1472 961 1499 983 1483 975 b 1086 428 1381 832 1181 551 b 1024 424 1067 400 1044 397 b 618 961 924 542 715 832 b 574 983 608 975 592 983 b 44 983 418 982 207 985 b 19 938 13 983 1 964 b 690 21 185 701 524 222 b 736 -1 701 7 718 0 z m 1786 1061 l 1981 1061 b 2014 1094 2006 1061 2014 1069 l 2014 1272 b 1981 1306 2014 1297 2007 1304 l 1786 1306 b 1753 1272 1761 1306 1754 1299 l 1753 1094 b 1786 1061 1753 1071 1761 1063 z m 1464 1061 l 1658 1061 b 1692 1094 1683 1061 1690 1069 l 1692 1272 b 1658 1306 1692 1297 1685 1304 l 1464 1306 b 1431 1272 1439 1306 1432 1299 l 1431 1094 b 1464 1061 1431 1071 1439 1063 z "},"Ẁ":{"ha":3415,"x_min":0,"x_max":0,"o":"m 736 -1 b 1271 -1 890 -6 1139 -6 b 1315 22 1289 0 1306 8 b 1668 513 1390 124 1576 388 b 1731 518 1688 540 1710 544 b 2160 21 1829 410 2017 188 b 2206 0 2171 7 2188 0 b 2743 -1 2338 -3 2594 -6 b 2786 24 2761 0 2776 8 b 3397 935 2888 172 3257 707 b 3369 983 3413 963 3401 983 b 2906 983 3232 983 3021 985 b 2864 960 2888 983 2872 975 b 2497 431 2799 856 2590 561 b 2438 426 2479 401 2457 399 b 2001 961 2338 546 2125 801 b 1957 985 1992 975 1975 983 b 1517 983 1853 990 1644 988 b 1472 961 1499 983 1483 975 b 1086 428 1381 832 1181 551 b 1024 424 1067 400 1044 397 b 618 961 924 542 715 832 b 574 983 608 975 592 983 b 44 983 418 982 207 985 b 19 938 13 983 1 964 b 690 21 185 701 524 222 b 736 -1 701 7 718 0 z m 1885 1103 l 1747 1328 b 1706 1351 1739 1343 1724 1351 l 1511 1351 b 1490 1307 1481 1351 1471 1332 l 1665 1076 b 1710 1054 1676 1063 1693 1054 l 1858 1054 b 1885 1103 1890 1054 1901 1075 z "},"X":{"ha":2260,"x_min":0,"x_max":0,"o":"m 33 0 l 633 0 b 681 19 650 0 668 7 b 1038 310 781 111 928 225 b 1118 317 1063 332 1090 335 b 1589 15 1246 239 1449 104 b 1640 0 1603 6 1622 0 b 2233 0 1789 -1 2065 -1 b 2244 35 2264 0 2269 15 b 1578 496 2064 171 1743 382 b 1578 532 1557 510 1557 517 b 2179 951 1769 657 1993 819 b 2168 983 2204 969 2200 983 l 1578 983 b 1526 967 1560 983 1542 978 b 1200 753 1447 913 1294 811 b 1117 751 1172 733 1144 732 b 750 968 1022 808 867 894 b 699 983 735 978 717 983 b 86 985 535 989 285 988 b 75 951 54 983 50 969 b 643 571 285 806 518 653 b 646 532 664 557 665 549 l 21 35 b 33 0 -3 15 1 0 z "},"Y":{"ha":2263,"x_min":0,"x_max":0,"o":"m 938 -1 b 1378 -1 1046 -3 1258 -3 b 1413 33 1403 0 1411 7 b 1403 311 1413 114 1408 226 b 1428 364 1401 336 1408 347 b 2246 951 1699 557 1968 757 b 2235 985 2271 969 2267 983 b 1740 983 2076 988 1863 988 b 1689 967 1722 983 1704 978 b 1229 664 1538 864 1381 767 b 1147 661 1201 643 1174 642 b 667 968 1025 742 821 868 b 615 983 651 978 633 983 b 28 983 469 986 229 986 b 15 949 -4 983 -10 968 b 878 344 314 725 643 506 b 904 293 897 331 903 318 l 904 33 b 938 -1 904 8 913 1 z "},"Ý":{"ha":2263,"x_min":0,"x_max":0,"o":"m 938 -1 b 1378 -1 1046 -3 1258 -3 b 1413 33 1403 0 1411 7 b 1403 311 1413 114 1408 226 b 1428 364 1401 336 1408 347 b 2246 951 1699 557 1968 757 b 2235 985 2271 969 2267 983 b 1740 983 2076 988 1863 988 b 1689 967 1722 983 1704 978 b 1229 664 1538 864 1381 767 b 1147 661 1201 643 1174 642 b 667 968 1025 742 821 868 b 615 983 651 978 633 983 b 28 983 469 986 229 986 b 15 949 -4 983 -10 968 b 878 344 314 725 643 506 b 904 293 897 331 903 318 l 904 33 b 938 -1 904 8 913 1 z m 985 1053 l 1129 1053 b 1174 1075 1147 1053 1163 1061 l 1356 1306 b 1335 1349 1375 1329 1367 1349 l 1142 1349 b 1100 1325 1125 1349 1110 1340 l 958 1100 b 985 1053 942 1074 953 1053 z "},"Ŷ":{"ha":2263,"x_min":0,"x_max":0,"o":"m 938 -1 b 1378 -1 1046 -3 1258 -3 b 1413 33 1403 0 1411 7 b 1403 311 1413 114 1408 226 b 1428 364 1401 336 1408 347 b 2246 951 1699 557 1968 757 b 2235 985 2271 969 2267 983 b 1740 983 2076 988 1863 988 b 1689 967 1722 983 1704 978 b 1229 664 1538 864 1381 767 b 1147 661 1201 643 1174 642 b 667 968 1025 742 821 868 b 615 983 651 978 633 983 b 28 983 469 986 229 986 b 15 949 -4 983 -10 968 b 878 344 314 725 643 506 b 904 293 897 331 903 318 l 904 33 b 938 -1 904 8 913 1 z m 990 1324 l 789 1092 b 808 1050 768 1068 776 1050 l 963 1050 b 1011 1069 981 1050 999 1057 l 1121 1174 l 1228 1069 b 1275 1050 1240 1057 1257 1050 l 1432 1050 b 1451 1092 1463 1050 1471 1068 l 1253 1324 b 1207 1344 1242 1338 1225 1344 l 1038 1344 b 990 1324 1019 1344 1003 1338 z "},"Ÿ":{"ha":2263,"x_min":0,"x_max":0,"o":"m 938 -1 b 1378 -1 1046 -3 1258 -3 b 1413 33 1403 0 1411 7 b 1403 311 1413 114 1408 226 b 1428 364 1401 336 1408 347 b 2246 951 1699 557 1968 757 b 2235 985 2271 969 2267 983 b 1740 983 2076 988 1863 988 b 1689 967 1722 983 1704 978 b 1229 664 1538 864 1381 767 b 1147 661 1201 643 1174 642 b 667 968 1025 742 821 868 b 615 983 651 978 633 983 b 28 983 469 986 229 986 b 15 949 -4 983 -10 968 b 878 344 314 725 643 506 b 904 293 897 331 903 318 l 904 33 b 938 -1 904 8 913 1 z m 1185 1061 l 1379 1061 b 1413 1094 1404 1061 1413 1069 l 1413 1272 b 1379 1306 1413 1297 1406 1304 l 1185 1306 b 1151 1272 1160 1306 1153 1299 l 1151 1094 b 1185 1061 1151 1071 1160 1063 z m 863 1061 l 1057 1061 b 1090 1094 1082 1061 1089 1069 l 1090 1272 b 1057 1306 1090 1297 1083 1304 l 863 1306 b 829 1272 838 1306 831 1299 l 829 1094 b 863 1061 829 1071 838 1063 z "},"Ỳ":{"ha":2263,"x_min":0,"x_max":0,"o":"m 938 -1 b 1378 -1 1046 -3 1258 -3 b 1413 33 1403 0 1411 7 b 1403 311 1413 114 1408 226 b 1428 364 1401 336 1408 347 b 2246 951 1699 557 1968 757 b 2235 985 2271 969 2267 983 b 1740 983 2076 988 1863 988 b 1689 967 1722 983 1704 978 b 1229 664 1538 864 1381 767 b 1147 661 1201 643 1174 642 b 667 968 1025 742 821 868 b 615 983 651 978 633 983 b 28 983 469 986 229 986 b 15 949 -4 983 -10 968 b 878 344 314 725 643 506 b 904 293 897 331 903 318 l 904 33 b 938 -1 904 8 913 1 z m 1283 1103 l 1146 1328 b 1104 1351 1138 1343 1122 1351 l 910 1351 b 889 1307 879 1351 869 1332 l 1064 1076 b 1108 1054 1075 1063 1092 1054 l 1257 1054 b 1283 1103 1289 1054 1300 1075 z "},"Z":{"ha":1946,"x_min":0,"x_max":0,"o":"m 67 0 l 1881 0 b 1914 33 1904 0 1913 7 l 1914 269 b 1881 303 1914 294 1906 301 l 940 301 b 936 322 911 301 910 311 b 1854 676 1188 431 1542 563 b 1881 713 1871 682 1881 696 l 1881 950 b 1847 983 1881 975 1872 982 l 72 983 b 39 950 47 983 40 975 l 39 717 b 72 683 39 692 46 683 l 939 683 b 943 663 967 683 968 674 b 58 278 668 539 301 393 b 33 239 43 271 33 257 l 33 33 b 67 0 33 8 42 1 z "},"a":{"ha":1679,"x_min":0,"x_max":0,"o":"m 656 -18 b 1138 67 972 -18 1003 -11 b 1193 43 1163 81 1186 71 l 1196 32 b 1238 0 1201 8 1211 1 l 1582 0 b 1615 33 1607 0 1614 7 l 1615 456 b 1553 710 1615 576 1592 671 b 860 819 1472 790 1372 819 b 139 715 303 819 211 789 b 58 564 107 682 76 625 b 83 531 51 540 57 532 b 538 528 219 526 413 526 b 574 549 556 528 564 533 b 594 575 581 560 586 568 b 844 599 617 597 636 599 b 1146 568 1090 599 1122 592 b 1160 528 1156 557 1160 543 l 1160 515 b 1138 492 1160 497 1156 492 l 779 486 b 100 404 225 479 158 460 b 36 232 58 363 36 301 b 93 56 36 163 56 93 b 656 -18 150 -3 226 -18 z m 763 199 b 510 218 547 199 525 204 b 497 254 500 228 497 239 b 510 288 497 267 500 278 b 826 313 524 301 549 308 l 1135 317 b 1154 289 1157 317 1161 311 b 1092 235 1143 265 1124 249 b 763 199 1013 203 918 199 z "},"á":{"ha":1679,"x_min":0,"x_max":0,"o":"m 656 -18 b 1138 67 972 -18 1003 -11 b 1193 43 1163 81 1186 71 l 1196 32 b 1238 0 1201 8 1211 1 l 1582 0 b 1615 33 1607 0 1614 7 l 1615 456 b 1553 710 1615 576 1592 671 b 860 819 1472 790 1372 819 b 139 715 303 819 211 789 b 58 564 107 682 76 625 b 83 531 51 540 57 532 b 538 528 219 526 413 526 b 574 549 556 528 564 533 b 594 575 581 560 586 568 b 844 599 617 597 636 599 b 1146 568 1090 599 1122 592 b 1160 528 1156 557 1160 543 l 1160 515 b 1138 492 1160 497 1156 492 l 779 486 b 100 404 225 479 158 460 b 36 232 58 363 36 301 b 93 56 36 163 56 93 b 656 -18 150 -3 226 -18 z m 763 199 b 510 218 547 199 525 204 b 497 254 500 228 497 239 b 510 288 497 267 500 278 b 826 313 524 301 549 308 l 1135 317 b 1154 289 1157 317 1161 311 b 1092 235 1143 265 1124 249 b 763 199 1013 203 918 199 z m 726 868 l 871 868 b 915 890 889 868 904 876 l 1097 1121 b 1076 1164 1117 1144 1108 1164 l 883 1164 b 842 1140 867 1164 851 1156 l 700 915 b 726 868 683 889 694 868 z "},"â":{"ha":1679,"x_min":0,"x_max":0,"o":"m 656 -18 b 1138 67 972 -18 1003 -11 b 1193 43 1163 81 1186 71 l 1196 32 b 1238 0 1201 8 1211 1 l 1582 0 b 1615 33 1607 0 1614 7 l 1615 456 b 1553 710 1615 576 1592 671 b 860 819 1472 790 1372 819 b 139 715 303 819 211 789 b 58 564 107 682 76 625 b 83 531 51 540 57 532 b 538 528 219 526 413 526 b 574 549 556 528 564 533 b 594 575 581 560 586 568 b 844 599 617 597 636 599 b 1146 568 1090 599 1122 592 b 1160 528 1156 557 1160 543 l 1160 515 b 1138 492 1160 497 1156 492 l 779 486 b 100 404 225 479 158 460 b 36 232 58 363 36 301 b 93 56 36 163 56 93 b 656 -18 150 -3 226 -18 z m 763 199 b 510 218 547 199 525 204 b 497 254 500 228 497 239 b 510 288 497 267 500 278 b 826 313 524 301 549 308 l 1135 317 b 1154 289 1157 317 1161 311 b 1092 235 1143 265 1124 249 b 763 199 1013 203 918 199 z m 732 1139 l 531 907 b 550 865 510 883 518 865 l 704 865 b 753 885 722 865 740 872 l 863 989 l 969 885 b 1017 865 982 872 999 865 l 1174 865 b 1193 907 1204 865 1213 883 l 994 1139 b 949 1160 983 1153 967 1160 l 779 1160 b 732 1139 761 1160 744 1153 z "},"ä":{"ha":1679,"x_min":0,"x_max":0,"o":"m 656 -18 b 1138 67 972 -18 1003 -11 b 1193 43 1163 81 1186 71 l 1196 32 b 1238 0 1201 8 1211 1 l 1582 0 b 1615 33 1607 0 1614 7 l 1615 456 b 1553 710 1615 576 1592 671 b 860 819 1472 790 1372 819 b 139 715 303 819 211 789 b 58 564 107 682 76 625 b 83 531 51 540 57 532 b 538 528 219 526 413 526 b 574 549 556 528 564 533 b 594 575 581 560 586 568 b 844 599 617 597 636 599 b 1146 568 1090 599 1122 592 b 1160 528 1156 557 1160 543 l 1160 515 b 1138 492 1160 497 1156 492 l 779 486 b 100 404 225 479 158 460 b 36 232 58 363 36 301 b 93 56 36 163 56 93 b 656 -18 150 -3 226 -18 z m 763 199 b 510 218 547 199 525 204 b 497 254 500 228 497 239 b 510 288 497 267 500 278 b 826 313 524 301 549 308 l 1135 317 b 1154 289 1157 317 1161 311 b 1092 235 1143 265 1124 249 b 763 199 1013 203 918 199 z m 926 876 l 1121 876 b 1154 910 1146 876 1154 885 l 1154 1088 b 1121 1121 1154 1113 1147 1119 l 926 1121 b 893 1088 901 1121 894 1114 l 893 910 b 926 876 893 886 901 878 z m 604 876 l 799 876 b 832 910 824 876 831 885 l 832 1088 b 799 1121 832 1113 825 1119 l 604 1121 b 571 1088 579 1121 572 1114 l 571 910 b 604 876 571 886 579 878 z "},"à":{"ha":1679,"x_min":0,"x_max":0,"o":"m 656 -18 b 1138 67 972 -18 1003 -11 b 1193 43 1163 81 1186 71 l 1196 32 b 1238 0 1201 8 1211 1 l 1582 0 b 1615 33 1607 0 1614 7 l 1615 456 b 1553 710 1615 576 1592 671 b 860 819 1472 790 1372 819 b 139 715 303 819 211 789 b 58 564 107 682 76 625 b 83 531 51 540 57 532 b 538 528 219 526 413 526 b 574 549 556 528 564 533 b 594 575 581 560 586 568 b 844 599 617 597 636 599 b 1146 568 1090 599 1122 592 b 1160 528 1156 557 1160 543 l 1160 515 b 1138 492 1160 497 1156 492 l 779 486 b 100 404 225 479 158 460 b 36 232 58 363 36 301 b 93 56 36 163 56 93 b 656 -18 150 -3 226 -18 z m 763 199 b 510 218 547 199 525 204 b 497 254 500 228 497 239 b 510 288 497 267 500 278 b 826 313 524 301 549 308 l 1135 317 b 1154 289 1157 317 1161 311 b 1092 235 1143 265 1124 249 b 763 199 1013 203 918 199 z m 1025 918 l 888 1143 b 846 1167 879 1158 864 1167 l 651 1167 b 631 1122 621 1167 611 1147 l 806 892 b 850 869 817 878 833 869 l 999 869 b 1025 918 1031 869 1042 890 z "},"å":{"ha":1679,"x_min":0,"x_max":0,"o":"m 656 -18 b 1138 67 972 -18 1003 -11 b 1193 43 1163 81 1186 71 l 1196 32 b 1238 0 1201 8 1211 1 l 1582 0 b 1615 33 1607 0 1614 7 l 1615 456 b 1553 710 1615 576 1592 671 b 860 819 1472 790 1372 819 b 139 715 303 819 211 789 b 58 564 107 682 76 625 b 83 531 51 540 57 532 b 538 528 219 526 413 526 b 574 549 556 528 564 533 b 594 575 581 560 586 568 b 844 599 617 597 636 599 b 1146 568 1090 599 1122 592 b 1160 528 1156 557 1160 543 l 1160 515 b 1138 492 1160 497 1156 492 l 779 486 b 100 404 225 479 158 460 b 36 232 58 363 36 301 b 93 56 36 163 56 93 b 656 -18 150 -3 226 -18 z m 763 199 b 510 218 547 199 525 204 b 497 254 500 228 497 239 b 510 288 497 267 500 278 b 826 313 524 301 549 308 l 1135 317 b 1154 289 1157 317 1161 311 b 1092 235 1143 265 1124 249 b 763 199 1013 203 918 199 z m 861 854 b 1106 1078 997 854 1106 951 b 861 1300 1106 1204 997 1301 b 615 1078 724 1301 615 1204 b 861 854 615 951 724 854 z m 861 1013 b 793 1078 824 1013 793 1040 b 861 1143 793 1114 824 1143 b 928 1078 899 1143 928 1114 b 861 1013 928 1040 899 1013 z "},"ã":{"ha":1679,"x_min":0,"x_max":0,"o":"m 656 -18 b 1138 67 972 -18 1003 -11 b 1193 43 1163 81 1186 71 l 1196 32 b 1238 0 1201 8 1211 1 l 1582 0 b 1615 33 1607 0 1614 7 l 1615 456 b 1553 710 1615 576 1592 671 b 860 819 1472 790 1372 819 b 139 715 303 819 211 789 b 58 564 107 682 76 625 b 83 531 51 540 57 532 b 538 528 219 526 413 526 b 574 549 556 528 564 533 b 594 575 581 560 586 568 b 844 599 617 597 636 599 b 1146 568 1090 599 1122 592 b 1160 528 1156 557 1160 543 l 1160 515 b 1138 492 1160 497 1156 492 l 779 486 b 100 404 225 479 158 460 b 36 232 58 363 36 301 b 93 56 36 163 56 93 b 656 -18 150 -3 226 -18 z m 763 199 b 510 218 547 199 525 204 b 497 254 500 228 497 239 b 510 288 497 267 500 278 b 826 313 524 301 549 308 l 1135 317 b 1154 289 1157 317 1161 311 b 1092 235 1143 265 1124 249 b 763 199 1013 203 918 199 z m 1039 853 b 1186 901 1100 853 1144 871 b 1207 946 1200 913 1207 928 l 1207 1076 b 1165 1096 1207 1107 1189 1115 b 1040 1056 1128 1069 1090 1057 b 883 1093 989 1056 946 1071 b 694 1135 825 1113 764 1135 b 536 1082 633 1135 579 1117 b 517 1035 524 1069 517 1053 l 517 907 b 558 888 517 875 535 867 b 688 931 597 918 638 931 b 844 894 736 931 779 915 b 1039 853 904 875 968 853 z "},"æ":{"ha":2901,"x_min":0,"x_max":0,"o":"m 656 -18 b 1138 67 972 -18 1003 -11 b 1193 43 1163 81 1186 71 l 1196 32 b 1238 0 1201 8 1211 1 l 1421 0 b 1992 -21 1529 -17 1701 -21 b 2757 79 2565 -21 2675 -4 b 2840 225 2796 118 2826 174 b 2814 260 2846 250 2840 257 b 2386 265 2718 263 2485 267 b 2328 240 2361 264 2347 257 b 2325 238 2326 240 2326 239 b 2003 210 2297 217 2268 210 b 1649 244 1722 210 1675 218 b 1625 288 1639 254 1631 268 b 1651 319 1619 311 1625 318 l 2817 325 b 2849 358 2842 325 2849 332 b 2739 721 2839 514 2796 664 b 1996 814 2665 794 2565 814 b 1397 789 1681 814 1504 808 b 860 819 1300 811 1143 819 b 139 715 303 819 211 789 b 58 564 107 682 76 625 b 83 531 51 540 57 532 b 538 528 219 526 413 526 b 574 549 556 528 564 533 b 594 575 581 560 586 568 b 844 599 617 597 636 599 b 1146 568 1090 599 1122 592 b 1160 528 1156 557 1160 543 l 1160 515 l 1160 511 l 1158 501 b 1138 492 1156 494 1150 492 l 779 486 b 100 404 225 479 158 460 b 36 232 58 363 36 301 b 93 56 36 163 56 93 b 656 -18 150 -3 226 -18 z m 763 199 b 510 218 547 199 525 204 b 497 254 500 228 497 239 b 510 288 497 267 500 278 b 826 313 524 301 549 308 l 1135 317 b 1154 313 1144 317 1150 315 l 1156 294 l 1154 289 b 1092 235 1143 265 1124 249 b 763 199 1013 203 918 199 z m 1632 519 b 1651 547 1638 531 1644 540 b 1997 588 1683 575 1742 588 b 2326 547 2253 588 2297 578 b 2346 519 2333 540 2340 532 b 2324 489 2354 497 2350 490 l 1654 488 b 1632 519 1629 488 1625 494 z "},"b":{"ha":1779,"x_min":0,"x_max":0,"o":"m 1067 -19 b 1628 65 1493 -19 1569 10 b 1724 382 1689 124 1724 222 b 1628 732 1724 540 1692 675 b 1065 819 1564 789 1464 819 b 561 726 697 819 681 783 b 515 757 535 715 515 728 b 518 1019 515 849 515 925 b 486 1053 519 1044 511 1051 l 117 1053 b 81 1019 92 1053 83 1044 b 72 496 72 861 72 675 b 79 33 72 349 74 207 b 114 0 81 8 88 1 l 456 0 b 492 33 481 0 489 7 l 492 53 b 542 82 494 82 515 94 b 1067 -19 686 10 665 -19 z m 875 246 b 565 303 692 246 607 269 b 519 397 532 332 519 358 b 563 490 519 439 538 468 b 876 551 604 526 665 551 b 1222 514 1151 551 1196 540 b 1261 392 1250 489 1261 444 b 1229 282 1261 346 1256 306 b 875 246 1197 251 1133 246 z "},"c":{"ha":1790,"x_min":0,"x_max":0,"o":"m 878 -21 b 1644 71 1458 -21 1560 -8 b 1739 292 1683 107 1719 176 b 1711 329 1743 317 1738 325 b 1306 340 1590 340 1454 340 b 1257 310 1281 340 1269 332 b 1225 274 1250 299 1239 286 b 882 238 1199 251 1139 238 b 563 275 649 238 589 251 b 524 394 538 297 525 338 b 563 522 522 450 536 497 b 882 558 589 547 656 558 b 1222 519 1161 558 1194 544 b 1250 482 1233 510 1242 496 b 1299 451 1261 460 1272 453 b 1710 451 1426 450 1586 451 b 1740 486 1735 453 1742 460 b 1640 725 1728 578 1689 678 b 878 813 1563 800 1458 813 b 165 729 356 813 238 799 b 60 394 99 665 60 547 b 165 67 60 246 99 132 b 878 -21 240 -6 353 -21 z "},"ç":{"ha":1790,"x_min":0,"x_max":0,"o":"m 60 394 b 165 67 60 246 99 132 b 756 -21 235 0 335 -18 l 656 -210 b 685 -260 640 -237 654 -260 l 869 -260 b 908 -233 888 -260 901 -250 l 992 -21 b 1644 71 1472 -19 1565 -3 b 1739 292 1683 107 1719 176 b 1711 329 1743 317 1738 325 b 1306 340 1590 340 1454 340 b 1257 310 1281 340 1269 332 b 1225 274 1250 299 1239 286 b 882 238 1199 251 1139 238 b 563 275 649 238 589 251 b 524 394 538 297 525 338 b 563 522 522 450 536 497 b 882 558 589 547 656 558 b 1222 519 1161 558 1194 544 b 1250 482 1233 510 1242 496 b 1299 451 1261 460 1272 453 b 1710 451 1426 450 1586 451 b 1740 486 1735 453 1742 460 b 1640 725 1728 578 1689 678 b 878 813 1563 800 1458 813 b 165 729 356 813 238 799 b 60 394 99 665 60 547 z "},"d":{"ha":1779,"x_min":0,"x_max":0,"o":"m 713 -19 b 1238 82 1114 -19 1093 10 b 1288 53 1264 94 1285 82 l 1288 33 b 1324 0 1290 7 1299 0 l 1665 0 b 1700 33 1692 1 1699 8 b 1707 496 1706 207 1707 349 b 1699 1019 1707 675 1707 861 b 1663 1053 1696 1044 1688 1053 l 1293 1053 b 1261 1019 1268 1051 1260 1044 b 1264 757 1264 925 1264 849 b 1218 726 1264 728 1244 715 b 714 819 1099 783 1082 819 b 151 732 315 819 215 789 b 56 382 88 675 56 540 b 151 65 56 222 90 124 b 713 -19 210 10 286 -19 z m 904 246 b 550 282 646 246 582 251 b 518 392 524 306 518 346 b 557 514 518 444 529 489 b 903 551 583 540 628 551 b 1217 490 1114 551 1175 526 b 1260 397 1242 468 1260 439 b 1214 303 1260 358 1247 332 b 904 246 1172 269 1088 246 z "},"e":{"ha":1813,"x_min":0,"x_max":0,"o":"m 901 -21 b 1667 79 1475 -21 1585 -4 b 1750 225 1706 118 1736 174 b 1724 260 1756 250 1750 257 b 1296 265 1628 263 1394 267 b 1238 240 1271 264 1257 257 b 1235 238 1236 240 1236 239 b 913 210 1207 217 1178 210 b 558 244 632 210 585 218 b 535 288 549 254 540 268 b 561 319 529 311 535 318 l 1726 325 b 1758 358 1751 325 1758 332 b 1649 721 1749 514 1706 664 b 906 814 1575 794 1475 814 b 163 726 364 814 232 796 b 60 389 96 660 60 529 b 156 72 60 260 89 138 b 901 -21 232 -6 364 -21 z m 542 519 b 561 547 547 531 554 540 b 907 588 593 575 651 588 b 1236 547 1163 588 1207 578 b 1256 519 1243 540 1250 532 b 1233 489 1264 497 1260 490 l 564 488 b 542 519 539 488 535 494 z "},"é":{"ha":1813,"x_min":0,"x_max":0,"o":"m 901 -21 b 1667 79 1475 -21 1585 -4 b 1750 225 1706 118 1736 174 b 1724 260 1756 250 1750 257 b 1296 265 1628 263 1394 267 b 1238 240 1271 264 1257 257 b 1235 238 1236 240 1236 239 b 913 210 1207 217 1178 210 b 558 244 632 210 585 218 b 535 288 549 254 540 268 b 561 319 529 311 535 318 l 1726 325 b 1758 358 1751 325 1758 332 b 1649 721 1749 514 1706 664 b 906 814 1575 794 1475 814 b 163 726 364 814 232 796 b 60 389 96 660 60 529 b 156 72 60 260 89 138 b 901 -21 232 -6 364 -21 z m 542 519 b 561 547 547 531 554 540 b 907 588 593 575 651 588 b 1236 547 1163 588 1207 578 b 1256 519 1243 540 1250 532 b 1233 489 1264 497 1260 490 l 564 488 b 542 519 539 488 535 494 z m 765 868 l 910 868 b 954 890 928 868 943 876 l 1136 1121 b 1115 1164 1156 1144 1147 1164 l 922 1164 b 881 1140 906 1164 890 1156 l 739 915 b 765 868 722 889 733 868 z "},"ê":{"ha":1813,"x_min":0,"x_max":0,"o":"m 901 -21 b 1667 79 1475 -21 1585 -4 b 1750 225 1706 118 1736 174 b 1724 260 1756 250 1750 257 b 1296 265 1628 263 1394 267 b 1238 240 1271 264 1257 257 b 1235 238 1236 240 1236 239 b 913 210 1207 217 1178 210 b 558 244 632 210 585 218 b 535 288 549 254 540 268 b 561 319 529 311 535 318 l 1726 325 b 1758 358 1751 325 1758 332 b 1649 721 1749 514 1706 664 b 906 814 1575 794 1475 814 b 163 726 364 814 232 796 b 60 389 96 660 60 529 b 156 72 60 260 89 138 b 901 -21 232 -6 364 -21 z m 542 519 b 561 547 547 531 554 540 b 907 588 593 575 651 588 b 1236 547 1163 588 1207 578 b 1256 519 1243 540 1250 532 b 1233 489 1264 497 1260 490 l 564 488 b 542 519 539 488 535 494 z m 772 1139 l 571 907 b 590 865 550 883 558 865 l 744 865 b 793 885 763 865 781 872 l 903 989 l 1010 885 b 1057 865 1022 872 1039 865 l 1214 865 b 1233 907 1244 865 1253 883 l 1035 1139 b 989 1160 1024 1153 1007 1160 l 819 1160 b 772 1139 801 1160 785 1153 z "},"ë":{"ha":1813,"x_min":0,"x_max":0,"o":"m 901 -21 b 1667 79 1475 -21 1585 -4 b 1750 225 1706 118 1736 174 b 1724 260 1756 250 1750 257 b 1296 265 1628 263 1394 267 b 1238 240 1271 264 1257 257 b 1235 238 1236 240 1236 239 b 913 210 1207 217 1178 210 b 558 244 632 210 585 218 b 535 288 549 254 540 268 b 561 319 529 311 535 318 l 1726 325 b 1758 358 1751 325 1758 332 b 1649 721 1749 514 1706 664 b 906 814 1575 794 1475 814 b 163 726 364 814 232 796 b 60 389 96 660 60 529 b 156 72 60 260 89 138 b 901 -21 232 -6 364 -21 z m 542 519 b 561 547 547 531 554 540 b 907 588 593 575 651 588 b 1236 547 1163 588 1207 578 b 1256 519 1243 540 1250 532 b 1233 489 1264 497 1260 490 l 564 488 b 542 519 539 488 535 494 z m 967 876 l 1161 876 b 1194 910 1186 876 1194 885 l 1194 1088 b 1161 1121 1194 1113 1188 1119 l 967 1121 b 933 1088 942 1121 935 1114 l 933 910 b 967 876 933 886 942 878 z m 644 876 l 839 876 b 872 910 864 876 871 885 l 872 1088 b 839 1121 872 1113 865 1119 l 644 1121 b 611 1088 619 1121 613 1114 l 611 910 b 644 876 611 886 619 878 z "},"è":{"ha":1813,"x_min":0,"x_max":0,"o":"m 901 -21 b 1667 79 1475 -21 1585 -4 b 1750 225 1706 118 1736 174 b 1724 260 1756 250 1750 257 b 1296 265 1628 263 1394 267 b 1238 240 1271 264 1257 257 b 1235 238 1236 240 1236 239 b 913 210 1207 217 1178 210 b 558 244 632 210 585 218 b 535 288 549 254 540 268 b 561 319 529 311 535 318 l 1726 325 b 1758 358 1751 325 1758 332 b 1649 721 1749 514 1706 664 b 906 814 1575 794 1475 814 b 163 726 364 814 232 796 b 60 389 96 660 60 529 b 156 72 60 260 89 138 b 901 -21 232 -6 364 -21 z m 542 519 b 561 547 547 531 554 540 b 907 588 593 575 651 588 b 1236 547 1163 588 1207 578 b 1256 519 1243 540 1250 532 b 1233 489 1264 497 1260 490 l 564 488 b 542 519 539 488 535 494 z m 1065 918 l 928 1143 b 886 1167 919 1158 904 1167 l 692 1167 b 671 1122 661 1167 651 1147 l 846 892 b 890 869 857 878 874 869 l 1039 869 b 1065 918 1071 869 1082 890 z "},"f":{"ha":1550,"x_min":0,"x_max":0,"o":"m 439 0 l 832 0 b 864 33 857 0 864 7 b 858 482 860 175 858 350 b 892 515 858 507 865 515 l 1510 515 b 1543 549 1535 515 1542 524 l 1543 765 b 1510 799 1543 790 1536 797 l 885 799 b 850 824 863 799 854 804 b 986 883 854 867 890 883 b 1510 878 1149 883 1360 883 b 1543 910 1535 876 1542 883 l 1542 1101 b 1508 1135 1542 1125 1533 1133 b 978 1139 1396 1136 1171 1139 b 403 860 535 1139 403 1054 l 403 832 b 369 799 403 807 396 800 l 35 799 b 1 765 10 799 3 792 l 1 549 b 35 515 1 525 10 517 l 371 515 b 406 482 396 515 404 508 l 406 33 b 439 0 406 8 413 1 z "},"g":{"ha":1622,"x_min":0,"x_max":0,"o":"m 769 -406 b 1549 -297 1393 -406 1488 -358 b 1606 -124 1588 -260 1606 -206 b 1536 75 1606 -26 1583 40 b 968 144 1476 121 1414 142 b 490 168 565 147 507 151 b 481 193 483 175 481 183 b 493 228 481 204 485 215 b 540 247 506 242 522 249 b 831 243 610 244 683 243 b 1461 324 1300 243 1394 260 b 1521 521 1500 361 1521 438 b 1457 717 1521 607 1493 678 b 1304 779 1429 744 1375 767 b 1274 801 1282 783 1274 789 b 1351 844 1274 831 1307 844 l 1493 846 b 1526 879 1518 846 1526 853 l 1528 1064 b 1494 1096 1528 1088 1519 1096 b 1092 1026 1218 1090 1138 1072 b 1022 840 1058 993 1042 946 b 983 808 1018 815 1010 808 b 799 811 942 810 876 811 b 151 728 314 811 218 793 b 74 524 101 681 74 614 b 224 281 74 400 119 324 b 228 239 250 271 253 253 b 69 61 111 165 69 115 b 136 -49 69 13 88 -22 b 138 -90 163 -60 163 -78 b 24 -235 60 -133 24 -179 b 56 -319 24 -268 35 -297 b 769 -406 114 -378 214 -406 z m 806 -200 b 424 -172 478 -200 442 -190 b 413 -142 417 -165 413 -153 b 414 -126 413 -137 414 -132 b 457 -96 421 -103 431 -96 b 807 -99 510 -97 581 -99 b 1196 -118 1154 -101 1179 -103 b 1208 -147 1204 -125 1208 -136 b 1197 -175 1208 -158 1204 -169 b 806 -200 1181 -190 1151 -200 z m 807 453 b 514 476 547 453 536 456 b 497 522 503 486 497 503 b 513 569 497 540 504 558 b 807 597 529 588 557 597 b 1093 568 1035 597 1068 589 b 1110 518 1104 558 1110 539 b 1094 478 1110 501 1104 486 b 807 453 1074 461 1051 453 z "},"h":{"ha":1693,"x_min":0,"x_max":0,"o":"m 110 0 l 490 0 b 524 33 515 0 522 7 b 524 322 525 133 524 229 b 589 456 524 374 539 417 b 883 522 640 497 688 522 b 1143 483 1057 522 1108 514 b 1179 347 1172 460 1179 403 b 1178 33 1179 231 1176 135 b 1211 0 1178 8 1185 1 l 1594 0 b 1628 33 1619 0 1626 7 b 1632 474 1629 150 1632 285 b 1553 736 1632 589 1614 681 b 1050 818 1492 793 1385 818 b 561 715 793 818 729 814 b 517 740 536 701 518 713 b 524 1021 518 828 524 946 b 492 1054 525 1046 517 1053 l 114 1054 b 81 1021 90 1054 82 1046 b 74 460 76 888 74 628 b 76 33 74 286 75 147 b 110 0 76 8 85 1 z "},"i":{"ha":590,"x_min":0,"x_max":0,"o":"m 108 0 l 482 0 b 517 33 507 0 515 7 b 517 765 522 240 522 581 b 482 799 517 790 508 797 l 108 799 b 74 765 83 799 76 792 b 75 33 68 581 69 243 b 108 0 75 8 83 1 z m 103 876 l 488 876 b 522 910 513 876 519 883 b 522 1096 525 963 525 1040 b 488 1129 521 1121 513 1128 l 103 1129 b 67 1096 78 1129 69 1122 b 67 910 65 1042 65 964 b 103 876 68 885 76 878 z "},"ı":{"ha":632,"x_min":0,"x_max":0,"o":"m 128 0 l 508 0 b 539 29 531 0 539 8 b 539 768 544 240 544 582 b 508 799 539 790 531 799 l 128 799 b 96 768 104 799 96 790 b 96 29 90 582 90 240 b 128 0 96 8 106 0 z "},"í":{"ha":632,"x_min":0,"x_max":0,"o":"m 128 0 l 508 0 b 539 29 531 0 539 8 b 539 768 544 240 544 582 b 508 799 539 790 531 799 l 128 799 b 96 768 104 799 96 790 b 96 29 90 582 90 240 b 128 0 96 8 106 0 z m 181 868 l 325 868 b 369 890 343 868 358 876 l 551 1121 b 531 1164 571 1144 563 1164 l 338 1164 b 296 1140 321 1164 306 1156 l 154 915 b 181 868 138 889 149 868 z "},"î":{"ha":632,"x_min":0,"x_max":0,"o":"m 128 0 l 508 0 b 539 29 531 0 539 8 b 539 768 544 240 544 582 b 508 799 539 790 531 799 l 128 799 b 96 768 104 799 96 790 b 96 29 90 582 90 240 b 128 0 96 8 106 0 z m 186 1139 l -15 907 b 4 865 -36 883 -28 865 l 158 865 b 207 885 176 865 194 872 l 317 989 l 424 885 b 471 865 436 872 453 865 l 628 865 b 647 907 658 865 667 883 l 449 1139 b 403 1160 438 1153 421 1160 l 233 1160 b 186 1139 215 1160 199 1153 z "},"ï":{"ha":632,"x_min":0,"x_max":0,"o":"m 128 0 l 508 0 b 539 29 531 0 539 8 b 539 768 544 240 544 582 b 508 799 539 790 531 799 l 128 799 b 96 768 104 799 96 790 b 96 29 90 582 90 240 b 128 0 96 8 106 0 z m 381 876 l 575 876 b 608 910 600 876 608 885 l 608 1088 b 575 1121 608 1113 601 1119 l 381 1121 b 347 1088 356 1121 349 1114 l 347 910 b 381 876 347 886 356 878 z m 58 876 l 253 876 b 286 910 278 876 285 885 l 286 1088 b 253 1121 286 1113 279 1119 l 58 1121 b 25 1088 33 1121 26 1114 l 25 910 b 58 876 25 886 33 878 z "},"ì":{"ha":632,"x_min":0,"x_max":0,"o":"m 128 0 l 508 0 b 539 29 531 0 539 8 b 539 768 544 240 544 582 b 508 799 539 790 531 799 l 128 799 b 96 768 104 799 96 790 b 96 29 90 582 90 240 b 128 0 96 8 106 0 z m 479 918 l 342 1143 b 300 1167 333 1158 318 1167 l 106 1167 b 85 1122 75 1167 65 1147 l 260 892 b 304 869 271 878 288 869 l 453 869 b 479 918 485 869 496 890 z "},"ĳ":{"ha":1229,"x_min":0,"x_max":0,"o":"m 108 0 l 482 0 b 517 33 507 0 515 7 b 517 765 522 240 522 581 b 482 799 517 790 508 797 l 108 799 b 74 765 83 799 76 792 b 75 33 68 581 69 243 b 108 0 75 8 83 1 z m 103 876 l 488 876 b 522 910 513 876 519 883 b 522 1096 525 963 525 1040 b 488 1129 521 1121 513 1128 l 103 1129 b 67 1096 78 1129 69 1122 b 67 910 65 1042 65 964 b 103 876 68 885 76 878 z m 689 -379 b 1144 -81 1006 -379 1143 -278 b 1132 765 1146 110 1140 525 b 1097 799 1131 790 1124 797 l 719 799 b 685 765 694 799 688 792 b 688 -25 679 529 682 232 b 583 -85 689 -72 675 -85 l 274 -83 b 240 -117 250 -83 242 -90 l 242 -339 b 275 -372 242 -364 249 -371 b 689 -379 365 -374 506 -379 z m 715 879 l 1101 879 b 1136 913 1126 879 1133 886 b 1136 1093 1139 963 1139 1035 b 1101 1126 1135 1118 1126 1126 l 715 1126 b 679 1094 690 1126 683 1119 b 679 911 675 1043 675 963 b 715 879 682 888 690 879 z "},"j":{"ha":639,"x_min":0,"x_max":0,"o":"m 97 -379 b 553 -81 414 -379 551 -278 b 540 765 554 110 549 525 b 506 799 539 790 532 797 l 128 799 b 93 765 103 799 96 792 b 96 -25 88 529 90 232 b -8 -85 97 -72 83 -85 l -318 -83 b -351 -117 -342 -83 -350 -90 l -350 -339 b -317 -372 -350 -364 -343 -371 b 97 -379 -226 -374 -86 -379 z m 124 879 l 510 879 b 544 913 535 879 542 886 b 544 1093 547 963 547 1035 b 510 1126 543 1118 535 1126 l 124 1126 b 88 1094 99 1126 92 1119 b 88 911 83 1043 83 963 b 124 879 90 888 99 879 z "},"ȷ":{"ha":639,"x_min":0,"x_max":0,"o":"m 97 -379 b 553 -81 414 -379 551 -278 b 540 765 554 110 549 525 b 506 799 539 790 532 797 l 128 799 b 93 765 103 799 96 792 b 96 -25 88 529 90 232 b -8 -85 97 -72 83 -85 l -318 -83 b -351 -117 -342 -83 -350 -90 l -350 -339 b -317 -372 -350 -364 -343 -371 b 97 -379 -226 -374 -86 -379 z "},"k":{"ha":1671,"x_min":0,"x_max":0,"o":"m 113 0 l 497 1 b 529 35 522 1 529 8 b 531 343 524 133 529 267 b 571 367 531 376 546 388 b 1081 15 731 258 907 136 b 1132 0 1096 6 1114 0 l 1696 0 b 1706 31 1726 0 1731 14 b 1057 453 1490 175 1276 310 b 1060 479 1043 463 1043 472 b 1636 774 1242 569 1449 682 b 1629 799 1664 788 1661 799 l 1083 799 b 1032 786 1067 799 1047 794 l 565 539 b 521 563 536 521 518 531 b 531 1021 521 701 525 857 b 499 1054 531 1046 524 1053 l 113 1054 b 79 1021 88 1054 81 1046 b 79 33 72 704 75 333 b 113 0 79 8 86 1 z "},"l":{"ha":601,"x_min":0,"x_max":0,"o":"m 111 0 l 488 0 b 522 33 513 0 521 7 b 522 1019 531 363 531 689 b 488 1053 521 1044 514 1051 l 111 1053 b 78 1019 86 1053 79 1044 b 78 33 71 689 71 363 b 111 0 78 8 86 1 z "},"m":{"ha":2529,"x_min":0,"x_max":0,"o":"m 101 0 l 486 0 b 519 33 510 0 518 7 l 518 317 b 576 463 518 385 533 422 b 786 521 625 506 668 521 b 1010 485 931 521 983 508 b 1039 346 1031 465 1039 425 l 1036 33 b 1068 0 1036 8 1043 1 l 1458 0 b 1492 33 1483 0 1490 7 l 1492 324 b 1553 461 1492 389 1508 424 b 1757 521 1601 504 1644 521 b 1983 485 1906 521 1958 510 b 2013 346 2007 464 2015 425 l 2011 33 b 2046 0 2013 8 2019 1 l 2432 0 b 2465 33 2457 0 2464 7 l 2465 469 b 2392 736 2465 600 2442 688 b 1896 818 2333 793 2235 818 b 1471 704 1632 818 1590 808 b 1421 710 1450 685 1439 686 b 985 818 1354 803 1293 818 b 542 719 700 818 667 811 b 497 739 519 703 500 711 l 494 765 b 458 799 492 790 483 797 l 106 799 b 71 765 81 799 74 792 b 67 401 68 650 67 524 b 67 33 67 276 65 150 b 101 0 67 8 75 1 z "},"n":{"ha":1689,"x_min":0,"x_max":0,"o":"m 101 0 l 486 0 b 519 33 511 0 518 7 l 519 313 b 583 458 519 375 535 418 b 885 521 636 501 678 521 b 1135 486 1056 521 1104 513 b 1172 342 1161 464 1172 421 l 1171 33 b 1206 0 1172 8 1179 1 l 1589 0 b 1622 33 1614 0 1621 7 b 1626 449 1625 178 1626 278 b 1544 740 1626 597 1607 685 b 1044 818 1485 796 1388 818 b 535 729 717 818 672 815 b 488 751 511 714 490 724 l 486 765 b 449 799 483 790 475 797 l 107 799 b 72 765 82 799 74 792 b 67 385 67 629 67 526 l 68 33 b 101 0 68 8 75 1 z "},"ñ":{"ha":1689,"x_min":0,"x_max":0,"o":"m 101 0 l 486 0 b 519 33 511 0 518 7 l 519 313 b 583 458 519 375 535 418 b 885 521 636 501 678 521 b 1135 486 1056 521 1104 513 b 1172 342 1161 464 1172 421 l 1171 33 b 1206 0 1172 8 1179 1 l 1589 0 b 1622 33 1614 0 1621 7 b 1626 449 1625 178 1626 278 b 1544 740 1626 597 1607 685 b 1044 818 1485 796 1388 818 b 535 729 717 818 672 815 b 488 751 511 714 490 724 l 486 765 b 449 799 483 790 475 797 l 107 799 b 72 765 82 799 74 792 b 67 385 67 629 67 526 l 68 33 b 101 0 68 8 75 1 z m 1011 853 b 1158 901 1072 853 1117 871 b 1179 946 1172 913 1179 928 l 1179 1076 b 1138 1096 1179 1107 1161 1115 b 1013 1056 1100 1069 1063 1057 b 856 1093 961 1056 918 1071 b 667 1135 797 1113 736 1135 b 508 1082 606 1135 551 1117 b 489 1035 496 1069 489 1053 l 489 907 b 531 888 489 875 507 867 b 660 931 569 918 610 931 b 817 894 708 931 751 915 b 1011 853 876 875 940 853 z "},"o":{"ha":1786,"x_min":0,"x_max":0,"o":"m 894 -19 b 1639 68 1407 -19 1557 -8 b 1732 396 1696 125 1732 238 b 1635 728 1732 558 1694 674 b 894 814 1558 799 1433 814 b 157 728 368 814 231 800 b 54 396 93 669 54 553 b 151 72 54 243 92 131 b 894 -19 229 -7 375 -19 z m 894 239 b 557 276 654 239 590 246 b 518 394 532 300 518 339 b 557 521 518 457 532 497 b 894 560 590 549 653 560 b 1228 518 1144 560 1196 550 b 1268 394 1254 494 1268 454 b 1231 278 1268 336 1254 299 b 894 239 1199 250 1133 239 z "},"ó":{"ha":1786,"x_min":0,"x_max":0,"o":"m 894 -19 b 1639 68 1407 -19 1557 -8 b 1732 396 1696 125 1732 238 b 1635 728 1732 558 1694 674 b 894 814 1558 799 1433 814 b 157 728 368 814 231 800 b 54 396 93 669 54 553 b 151 72 54 243 92 131 b 894 -19 229 -7 375 -19 z m 894 239 b 557 276 654 239 590 246 b 518 394 532 300 518 339 b 557 521 518 457 532 497 b 894 560 590 549 653 560 b 1228 518 1144 560 1196 550 b 1268 394 1254 494 1268 454 b 1231 278 1268 336 1254 299 b 894 239 1199 250 1133 239 z m 757 868 l 901 868 b 946 890 919 868 935 876 l 1128 1121 b 1107 1164 1147 1144 1139 1164 l 914 1164 b 872 1140 897 1164 882 1156 l 731 915 b 757 868 714 889 725 868 z "},"ô":{"ha":1786,"x_min":0,"x_max":0,"o":"m 894 -19 b 1639 68 1407 -19 1557 -8 b 1732 396 1696 125 1732 238 b 1635 728 1732 558 1694 674 b 894 814 1558 799 1433 814 b 157 728 368 814 231 800 b 54 396 93 669 54 553 b 151 72 54 243 92 131 b 894 -19 229 -7 375 -19 z m 894 239 b 557 276 654 239 590 246 b 518 394 532 300 518 339 b 557 521 518 457 532 497 b 894 560 590 549 653 560 b 1228 518 1144 560 1196 550 b 1268 394 1254 494 1268 454 b 1231 278 1268 336 1254 299 b 894 239 1199 250 1133 239 z m 764 1139 l 563 907 b 582 865 542 883 550 865 l 736 865 b 785 885 754 865 772 872 l 894 989 l 1001 885 b 1049 865 1014 872 1031 865 l 1206 865 b 1225 907 1236 865 1244 883 l 1026 1139 b 981 1160 1015 1153 999 1160 l 811 1160 b 764 1139 793 1160 776 1153 z "},"ö":{"ha":1786,"x_min":0,"x_max":0,"o":"m 894 -19 b 1639 68 1407 -19 1557 -8 b 1732 396 1696 125 1732 238 b 1635 728 1732 558 1694 674 b 894 814 1558 799 1433 814 b 157 728 368 814 231 800 b 54 396 93 669 54 553 b 151 72 54 243 92 131 b 894 -19 229 -7 375 -19 z m 894 239 b 557 276 654 239 590 246 b 518 394 532 300 518 339 b 557 521 518 457 532 497 b 894 560 590 549 653 560 b 1228 518 1144 560 1196 550 b 1268 394 1254 494 1268 454 b 1231 278 1268 336 1254 299 b 894 239 1199 250 1133 239 z m 958 876 l 1153 876 b 1186 910 1178 876 1186 885 l 1186 1088 b 1153 1121 1186 1113 1179 1119 l 958 1121 b 925 1088 933 1121 926 1114 l 925 910 b 958 876 925 886 933 878 z m 636 876 l 831 876 b 864 910 856 876 863 885 l 864 1088 b 831 1121 864 1113 857 1119 l 636 1121 b 603 1088 611 1121 604 1114 l 603 910 b 636 876 603 886 611 878 z "},"ò":{"ha":1786,"x_min":0,"x_max":0,"o":"m 894 -19 b 1639 68 1407 -19 1557 -8 b 1732 396 1696 125 1732 238 b 1635 728 1732 558 1694 674 b 894 814 1558 799 1433 814 b 157 728 368 814 231 800 b 54 396 93 669 54 553 b 151 72 54 243 92 131 b 894 -19 229 -7 375 -19 z m 894 239 b 557 276 654 239 590 246 b 518 394 532 300 518 339 b 557 521 518 457 532 497 b 894 560 590 549 653 560 b 1228 518 1144 560 1196 550 b 1268 394 1254 494 1268 454 b 1231 278 1268 336 1254 299 b 894 239 1199 250 1133 239 z m 1057 918 l 919 1143 b 878 1167 911 1158 896 1167 l 683 1167 b 663 1122 653 1167 643 1147 l 838 892 b 882 869 849 878 865 869 l 1031 869 b 1057 918 1063 869 1074 890 z "},"ø":{"ha":1786,"x_min":0,"x_max":0,"o":"m 894 -19 b 1639 68 1407 -19 1557 -8 b 1732 396 1696 125 1732 238 b 1635 728 1732 558 1694 674 b 1361 804 1589 771 1525 793 l 1576 1042 b 1558 1083 1599 1065 1590 1083 l 1436 1083 b 1390 1063 1418 1083 1401 1075 l 1163 813 l 894 814 b 157 728 368 814 231 800 b 54 396 93 669 54 553 b 151 72 54 243 92 131 b 415 -8 196 26 264 3 l 214 -229 b 233 -271 193 -253 201 -271 l 360 -271 b 407 -250 378 -271 394 -264 l 618 -18 z m 894 239 l 850 239 l 1133 551 b 1228 518 1189 546 1211 535 b 1268 394 1254 494 1268 454 b 1231 278 1268 336 1254 299 b 894 239 1199 250 1133 239 z m 518 394 b 557 521 518 457 532 497 b 894 560 590 549 653 560 l 932 560 l 647 246 b 557 276 597 251 574 261 b 518 394 532 300 518 339 z "},"õ":{"ha":1786,"x_min":0,"x_max":0,"o":"m 894 -19 b 1639 68 1407 -19 1557 -8 b 1732 396 1696 125 1732 238 b 1635 728 1732 558 1694 674 b 894 814 1558 799 1433 814 b 157 728 368 814 231 800 b 54 396 93 669 54 553 b 151 72 54 243 92 131 b 894 -19 229 -7 375 -19 z m 894 239 b 557 276 654 239 590 246 b 518 394 532 300 518 339 b 557 521 518 457 532 497 b 894 560 590 549 653 560 b 1228 518 1144 560 1196 550 b 1268 394 1254 494 1268 454 b 1231 278 1268 336 1254 299 b 894 239 1199 250 1133 239 z m 1069 853 b 1217 901 1131 853 1175 871 b 1238 946 1231 913 1238 928 l 1238 1076 b 1196 1096 1238 1107 1219 1115 b 1071 1056 1158 1069 1121 1057 b 914 1093 1019 1056 976 1071 b 725 1135 856 1113 794 1135 b 567 1082 664 1135 610 1117 b 547 1035 554 1069 547 1053 l 547 907 b 589 888 547 875 565 867 b 718 931 628 918 668 931 b 875 894 767 931 810 915 b 1069 853 935 875 999 853 z "},"œ":{"ha":3019,"x_min":0,"x_max":0,"o":"m 894 -19 b 1500 7 1213 -19 1392 -15 b 2108 -21 1607 -15 1783 -21 b 2874 79 2682 -21 2792 -4 b 2957 225 2913 118 2943 174 b 2931 260 2963 250 2957 257 b 2503 265 2835 263 2601 267 b 2444 240 2478 264 2464 257 b 2442 238 2443 240 2443 239 b 2119 210 2414 217 2385 210 b 1765 244 1839 210 1792 218 b 1742 288 1756 254 1747 268 b 1768 319 1736 311 1742 318 l 2933 325 b 2965 358 2958 325 2965 332 b 2856 721 2956 514 2913 664 b 2113 814 2782 794 2682 814 b 1504 788 1788 814 1610 807 b 894 814 1401 808 1226 814 b 157 728 368 814 231 800 b 54 396 93 669 54 553 b 151 72 54 243 92 131 b 894 -19 229 -7 375 -19 z m 894 239 b 557 276 654 239 590 246 b 518 394 532 300 518 339 b 557 521 518 457 532 497 b 894 560 590 549 653 560 b 1228 518 1144 560 1196 550 b 1267 419 1250 497 1264 465 l 1267 389 l 1267 367 b 1231 278 1264 324 1250 296 b 894 239 1199 250 1133 239 z m 1749 519 b 1768 547 1754 531 1761 540 b 2114 588 1800 575 1858 588 b 2443 547 2369 588 2414 578 b 2463 519 2450 540 2457 532 b 2440 489 2471 497 2467 490 l 1771 488 b 1749 519 1746 488 1742 494 z "},"p":{"ha":1775,"x_min":0,"x_max":0,"o":"m 103 -301 l 483 -301 b 517 -268 508 -301 515 -294 l 517 14 b 564 46 517 42 538 56 b 1057 -21 696 -8 671 -21 b 1624 64 1453 -21 1560 0 b 1721 406 1682 122 1721 242 b 1622 731 1721 560 1681 674 b 1044 819 1561 793 1454 819 b 565 726 710 819 696 796 b 514 753 540 714 518 725 l 513 765 b 476 799 510 790 501 797 l 108 799 b 74 765 83 799 76 792 b 67 299 67 588 67 443 l 69 -268 b 103 -301 69 -293 76 -300 z m 899 247 b 561 308 649 247 604 269 b 518 399 529 336 518 364 b 558 489 518 436 532 464 b 899 550 604 529 654 550 b 1225 510 1144 550 1196 538 b 1258 399 1247 489 1258 450 b 1231 283 1258 342 1250 303 b 899 247 1201 254 1158 247 z "},"þ":{"ha":1782,"x_min":0,"x_max":0,"o":"m 103 -301 l 483 -301 b 517 -268 508 -301 515 -294 l 517 19 b 542 51 517 39 524 51 b 625 19 563 51 581 39 b 1057 -21 701 -12 744 -21 b 1624 64 1453 -21 1560 0 b 1721 406 1682 122 1721 242 b 1622 731 1721 560 1681 674 b 1044 819 1561 793 1454 819 b 628 761 761 819 710 806 b 547 722 578 733 567 722 b 528 749 532 722 528 736 l 525 1021 b 490 1054 524 1046 517 1053 l 108 1054 b 74 1021 83 1054 76 1046 b 67 299 67 814 67 447 l 69 -268 b 103 -301 69 -293 76 -300 z m 899 247 b 561 308 649 247 604 269 b 518 399 529 336 518 364 b 558 489 518 436 532 464 b 899 550 604 529 654 550 b 1225 510 1144 550 1196 538 b 1258 399 1247 489 1258 450 b 1231 283 1258 342 1250 303 b 899 247 1201 254 1158 247 z "},"q":{"ha":1775,"x_min":0,"x_max":0,"o":"m 1292 -301 l 1672 -301 b 1706 -268 1699 -300 1706 -293 l 1708 299 b 1701 765 1708 443 1708 588 b 1667 799 1699 792 1692 799 l 1299 799 b 1263 765 1274 797 1265 790 l 1261 753 b 1210 726 1257 725 1235 714 b 731 819 1079 796 1065 819 b 153 731 321 819 214 793 b 54 406 94 674 54 560 b 151 64 54 242 93 122 b 718 -21 215 0 322 -21 b 1211 46 1104 -21 1079 -8 b 1258 14 1238 56 1258 42 l 1258 -268 b 1292 -301 1260 -294 1267 -301 z m 876 247 b 544 283 617 247 574 254 b 517 399 525 303 517 342 b 550 510 517 450 528 489 b 876 550 579 538 631 550 b 1217 489 1121 550 1171 529 b 1257 399 1243 464 1257 436 b 1214 308 1257 364 1246 336 b 876 247 1171 269 1126 247 z "},"r":{"ha":1568,"x_min":0,"x_max":0,"o":"m 101 0 l 485 0 b 518 33 510 0 517 7 l 518 333 b 568 458 518 394 529 422 b 810 522 613 500 676 522 b 1072 489 1004 522 1043 513 b 1117 367 1094 469 1106 433 b 1156 333 1121 342 1129 335 l 1521 333 b 1551 367 1546 333 1553 342 b 1457 739 1536 600 1518 685 b 981 818 1390 800 1326 818 b 533 721 707 818 667 808 b 486 743 510 706 489 714 l 485 765 b 447 799 482 790 474 797 l 107 799 b 72 765 82 799 75 792 b 67 404 67 650 67 525 l 67 33 b 101 0 68 8 75 1 z "},"s":{"ha":1708,"x_min":0,"x_max":0,"o":"m 860 -17 b 1597 68 1432 -17 1538 8 b 1661 257 1639 111 1661 172 b 1597 457 1661 350 1639 417 b 926 535 1532 521 1449 533 b 518 550 568 536 536 535 b 504 581 507 560 504 571 b 517 610 504 592 508 603 b 836 628 532 624 556 628 b 1122 604 1082 628 1104 622 l 1126 600 b 1175 583 1138 589 1149 585 b 1611 585 1303 579 1493 578 b 1635 619 1636 586 1642 594 b 1571 721 1622 650 1601 690 b 847 815 1500 792 1415 815 b 129 731 322 815 196 793 b 61 549 86 689 63 626 b 124 351 60 460 82 393 b 736 285 181 294 283 286 b 1203 261 1156 283 1183 279 b 1218 224 1213 253 1218 240 b 1206 194 1218 213 1214 201 b 865 171 1190 178 1169 171 b 572 199 631 171 597 176 l 565 206 b 519 226 556 219 544 225 b 72 221 396 232 181 229 b 46 185 49 218 42 210 b 110 72 57 143 78 103 b 860 -17 183 6 308 -17 z "},"t":{"ha":1847,"x_min":0,"x_max":0,"o":"m 1078 -21 b 1724 75 1528 -22 1650 1 b 1813 342 1765 118 1792 194 b 1783 375 1815 365 1808 374 b 1407 379 1693 378 1497 381 b 1365 346 1382 378 1374 371 b 1335 279 1357 311 1347 292 b 1092 251 1314 261 1275 251 b 849 344 857 251 849 267 b 849 482 849 397 847 439 b 882 515 849 506 857 514 b 1771 511 1082 515 1540 514 b 1804 543 1796 511 1803 518 l 1804 765 b 1771 799 1804 790 1797 797 l 890 799 b 857 832 865 799 858 807 l 857 953 b 824 986 857 978 849 985 l 451 986 b 417 953 426 986 419 978 l 407 832 b 372 799 406 807 397 800 l 63 799 b 29 765 38 799 31 792 l 26 546 b 60 513 26 522 35 514 l 363 514 b 396 482 388 515 394 507 l 393 275 b 1078 -21 393 46 482 -19 z "},"u":{"ha":1689,"x_min":0,"x_max":0,"o":"m 1588 799 l 1203 799 b 1169 765 1178 799 1171 792 l 1169 486 b 1106 340 1169 424 1154 381 b 804 278 1053 297 1011 278 b 554 313 633 278 585 286 b 517 457 528 335 517 378 l 518 765 b 483 799 517 790 510 797 l 100 799 b 67 765 75 799 68 792 b 63 350 64 621 63 521 b 144 58 63 201 82 114 b 644 -19 204 3 301 -19 b 1154 69 972 -19 1017 -17 b 1201 47 1178 85 1199 75 l 1203 33 b 1240 0 1206 8 1214 1 l 1582 0 b 1617 33 1607 0 1615 7 b 1622 414 1622 169 1622 272 l 1621 765 b 1588 799 1621 790 1614 797 z "},"ú":{"ha":1689,"x_min":0,"x_max":0,"o":"m 1588 799 l 1203 799 b 1169 765 1178 799 1171 792 l 1169 486 b 1106 340 1169 424 1154 381 b 804 278 1053 297 1011 278 b 554 313 633 278 585 286 b 517 457 528 335 517 378 l 518 765 b 483 799 517 790 510 797 l 100 799 b 67 765 75 799 68 792 b 63 350 64 621 63 521 b 144 58 63 201 82 114 b 644 -19 204 3 301 -19 b 1154 69 972 -19 1017 -17 b 1201 47 1178 85 1199 75 l 1203 33 b 1240 0 1206 8 1214 1 l 1582 0 b 1617 33 1607 0 1615 7 b 1622 414 1622 169 1622 272 l 1621 765 b 1588 799 1621 790 1614 797 z m 674 868 l 818 868 b 863 890 836 868 851 876 l 1044 1121 b 1024 1164 1064 1144 1056 1164 l 831 1164 b 789 1140 814 1164 799 1156 l 647 915 b 674 868 631 889 642 868 z "},"û":{"ha":1689,"x_min":0,"x_max":0,"o":"m 1588 799 l 1203 799 b 1169 765 1178 799 1171 792 l 1169 486 b 1106 340 1169 424 1154 381 b 804 278 1053 297 1011 278 b 554 313 633 278 585 286 b 517 457 528 335 517 378 l 518 765 b 483 799 517 790 510 797 l 100 799 b 67 765 75 799 68 792 b 63 350 64 621 63 521 b 144 58 63 201 82 114 b 644 -19 204 3 301 -19 b 1154 69 972 -19 1017 -17 b 1201 47 1178 85 1199 75 l 1203 33 b 1240 0 1206 8 1214 1 l 1582 0 b 1617 33 1607 0 1615 7 b 1622 414 1622 169 1622 272 l 1621 765 b 1588 799 1621 790 1614 797 z m 679 1139 l 478 907 b 497 865 457 883 465 865 l 651 865 b 700 885 669 865 688 872 l 810 989 l 917 885 b 964 865 929 872 946 865 l 1121 865 b 1140 907 1151 865 1160 883 l 942 1139 b 896 1160 931 1153 914 1160 l 726 1160 b 679 1139 708 1160 692 1153 z "},"ü":{"ha":1689,"x_min":0,"x_max":0,"o":"m 1588 799 l 1203 799 b 1169 765 1178 799 1171 792 l 1169 486 b 1106 340 1169 424 1154 381 b 804 278 1053 297 1011 278 b 554 313 633 278 585 286 b 517 457 528 335 517 378 l 518 765 b 483 799 517 790 510 797 l 100 799 b 67 765 75 799 68 792 b 63 350 64 621 63 521 b 144 58 63 201 82 114 b 644 -19 204 3 301 -19 b 1154 69 972 -19 1017 -17 b 1201 47 1178 85 1199 75 l 1203 33 b 1240 0 1206 8 1214 1 l 1582 0 b 1617 33 1607 0 1615 7 b 1622 414 1622 169 1622 272 l 1621 765 b 1588 799 1621 790 1614 797 z m 874 876 l 1068 876 b 1101 910 1093 876 1101 885 l 1101 1088 b 1068 1121 1101 1113 1094 1119 l 874 1121 b 840 1088 849 1121 842 1114 l 840 910 b 874 876 840 886 849 878 z m 551 876 l 746 876 b 779 910 771 876 778 885 l 779 1088 b 746 1121 779 1113 772 1119 l 551 1121 b 518 1088 526 1121 519 1114 l 518 910 b 551 876 518 886 526 878 z "},"ù":{"ha":1689,"x_min":0,"x_max":0,"o":"m 1588 799 l 1203 799 b 1169 765 1178 799 1171 792 l 1169 486 b 1106 340 1169 424 1154 381 b 804 278 1053 297 1011 278 b 554 313 633 278 585 286 b 517 457 528 335 517 378 l 518 765 b 483 799 517 790 510 797 l 100 799 b 67 765 75 799 68 792 b 63 350 64 621 63 521 b 144 58 63 201 82 114 b 644 -19 204 3 301 -19 b 1154 69 972 -19 1017 -17 b 1201 47 1178 85 1199 75 l 1203 33 b 1240 0 1206 8 1214 1 l 1582 0 b 1617 33 1607 0 1615 7 b 1622 414 1622 169 1622 272 l 1621 765 b 1588 799 1621 790 1614 797 z m 972 918 l 835 1143 b 793 1167 826 1158 811 1167 l 599 1167 b 578 1122 568 1167 558 1147 l 753 892 b 797 869 764 878 781 869 l 946 869 b 972 918 978 869 989 890 z "},"v":{"ha":1874,"x_min":0,"x_max":0,"o":"m 740 -1 b 1168 -1 856 -4 1044 -4 b 1214 19 1186 0 1203 7 b 1867 756 1381 194 1632 475 b 1846 800 1886 779 1878 799 b 1414 799 1719 801 1553 801 b 1369 778 1397 799 1381 792 b 1021 374 1257 643 1129 494 b 953 368 1000 346 975 344 b 568 778 832 486 688 640 b 522 799 557 792 540 799 b 26 800 379 801 186 801 b 7 757 -6 799 -14 781 b 693 19 217 522 472 244 b 740 -1 706 7 722 0 z "},"w":{"ha":2713,"x_min":0,"x_max":0,"o":"m 576 -1 b 989 -1 681 -4 888 -4 b 1032 24 1007 0 1022 8 l 1293 396 b 1351 401 1311 425 1332 428 b 1654 22 1467 258 1604 90 b 1697 -1 1664 8 1679 0 b 2188 -1 1840 -4 2063 -4 b 2232 22 2206 0 2222 8 b 2711 749 2375 215 2575 521 b 2685 800 2728 776 2715 799 b 2318 800 2583 801 2407 803 b 2275 775 2300 799 2285 790 b 2007 381 2219 685 2104 519 b 1951 376 1989 351 1968 349 b 1658 775 1851 513 1754 647 b 1614 799 1649 789 1632 797 b 1188 800 1501 801 1301 803 b 1144 776 1169 799 1154 790 b 863 389 1093 701 969 533 b 804 386 844 361 822 358 b 508 776 696 531 576 685 b 465 800 499 790 482 799 b 28 800 346 804 146 804 b 3 753 -4 800 -15 778 b 531 21 164 514 424 156 b 576 -1 542 8 558 0 z "},"ẃ":{"ha":2713,"x_min":0,"x_max":0,"o":"m 576 -1 b 989 -1 681 -4 888 -4 b 1032 24 1007 0 1022 8 l 1293 396 b 1351 401 1311 425 1332 428 b 1654 22 1467 258 1604 90 b 1697 -1 1664 8 1679 0 b 2188 -1 1840 -4 2063 -4 b 2232 22 2206 0 2222 8 b 2711 749 2375 215 2575 521 b 2685 800 2728 776 2715 799 b 2318 800 2583 801 2407 803 b 2275 775 2300 799 2285 790 b 2007 381 2219 685 2104 519 b 1951 376 1989 351 1968 349 b 1658 775 1851 513 1754 647 b 1614 799 1649 789 1632 797 b 1188 800 1501 801 1301 803 b 1144 776 1169 799 1154 790 b 863 389 1093 701 969 533 b 804 386 844 361 822 358 b 508 776 696 531 576 685 b 465 800 499 790 482 799 b 28 800 346 804 146 804 b 3 753 -4 800 -15 778 b 531 21 164 514 424 156 b 576 -1 542 8 558 0 z m 1208 868 l 1353 868 b 1397 890 1371 868 1386 876 l 1579 1121 b 1558 1164 1599 1144 1590 1164 l 1365 1164 b 1324 1140 1349 1164 1333 1156 l 1182 915 b 1208 868 1165 889 1176 868 z "},"ŵ":{"ha":2713,"x_min":0,"x_max":0,"o":"m 576 -1 b 989 -1 681 -4 888 -4 b 1032 24 1007 0 1022 8 l 1293 396 b 1351 401 1311 425 1332 428 b 1654 22 1467 258 1604 90 b 1697 -1 1664 8 1679 0 b 2188 -1 1840 -4 2063 -4 b 2232 22 2206 0 2222 8 b 2711 749 2375 215 2575 521 b 2685 800 2728 776 2715 799 b 2318 800 2583 801 2407 803 b 2275 775 2300 799 2285 790 b 2007 381 2219 685 2104 519 b 1951 376 1989 351 1968 349 b 1658 775 1851 513 1754 647 b 1614 799 1649 789 1632 797 b 1188 800 1501 801 1301 803 b 1144 776 1169 799 1154 790 b 863 389 1093 701 969 533 b 804 386 844 361 822 358 b 508 776 696 531 576 685 b 465 800 499 790 482 799 b 28 800 346 804 146 804 b 3 753 -4 800 -15 778 b 531 21 164 514 424 156 b 576 -1 542 8 558 0 z m 1214 1139 l 1013 907 b 1032 865 992 883 1000 865 l 1186 865 b 1235 885 1204 865 1222 872 l 1344 989 l 1451 885 b 1499 865 1464 872 1481 865 l 1656 865 b 1675 907 1686 865 1694 883 l 1476 1139 b 1431 1160 1465 1153 1449 1160 l 1261 1160 b 1214 1139 1243 1160 1226 1153 z "},"ẅ":{"ha":2713,"x_min":0,"x_max":0,"o":"m 576 -1 b 989 -1 681 -4 888 -4 b 1032 24 1007 0 1022 8 l 1293 396 b 1351 401 1311 425 1332 428 b 1654 22 1467 258 1604 90 b 1697 -1 1664 8 1679 0 b 2188 -1 1840 -4 2063 -4 b 2232 22 2206 0 2222 8 b 2711 749 2375 215 2575 521 b 2685 800 2728 776 2715 799 b 2318 800 2583 801 2407 803 b 2275 775 2300 799 2285 790 b 2007 381 2219 685 2104 519 b 1951 376 1989 351 1968 349 b 1658 775 1851 513 1754 647 b 1614 799 1649 789 1632 797 b 1188 800 1501 801 1301 803 b 1144 776 1169 799 1154 790 b 863 389 1093 701 969 533 b 804 386 844 361 822 358 b 508 776 696 531 576 685 b 465 800 499 790 482 799 b 28 800 346 804 146 804 b 3 753 -4 800 -15 778 b 531 21 164 514 424 156 b 576 -1 542 8 558 0 z m 1408 876 l 1603 876 b 1636 910 1628 876 1636 885 l 1636 1088 b 1603 1121 1636 1113 1629 1119 l 1408 1121 b 1375 1088 1383 1121 1376 1114 l 1375 910 b 1408 876 1375 886 1383 878 z m 1086 876 l 1281 876 b 1314 910 1306 876 1313 885 l 1314 1088 b 1281 1121 1314 1113 1307 1119 l 1086 1121 b 1053 1088 1061 1121 1054 1114 l 1053 910 b 1086 876 1053 886 1061 878 z "},"ẁ":{"ha":2713,"x_min":0,"x_max":0,"o":"m 576 -1 b 989 -1 681 -4 888 -4 b 1032 24 1007 0 1022 8 l 1293 396 b 1351 401 1311 425 1332 428 b 1654 22 1467 258 1604 90 b 1697 -1 1664 8 1679 0 b 2188 -1 1840 -4 2063 -4 b 2232 22 2206 0 2222 8 b 2711 749 2375 215 2575 521 b 2685 800 2728 776 2715 799 b 2318 800 2583 801 2407 803 b 2275 775 2300 799 2285 790 b 2007 381 2219 685 2104 519 b 1951 376 1989 351 1968 349 b 1658 775 1851 513 1754 647 b 1614 799 1649 789 1632 797 b 1188 800 1501 801 1301 803 b 1144 776 1169 799 1154 790 b 863 389 1093 701 969 533 b 804 386 844 361 822 358 b 508 776 696 531 576 685 b 465 800 499 790 482 799 b 28 800 346 804 146 804 b 3 753 -4 800 -15 778 b 531 21 164 514 424 156 b 576 -1 542 8 558 0 z m 1507 918 l 1369 1143 b 1328 1167 1361 1158 1346 1167 l 1133 1167 b 1113 1122 1103 1167 1093 1147 l 1288 892 b 1332 869 1299 878 1315 869 l 1481 869 b 1507 918 1513 869 1524 890 z "},"x":{"ha":1924,"x_min":0,"x_max":0,"o":"m 3 0 l 525 0 b 576 15 543 0 561 6 b 854 231 647 64 749 149 b 935 236 881 253 908 256 l 1283 15 b 1335 0 1299 6 1318 0 b 1921 1 1518 -1 1733 -1 b 1931 33 1951 1 1956 15 b 1374 411 1749 163 1511 328 b 1372 447 1351 425 1351 432 b 1847 764 1503 533 1717 667 b 1836 799 1872 783 1867 799 l 1314 799 b 1264 783 1297 799 1279 793 b 1017 626 1183 728 1115 682 b 935 628 989 608 961 608 b 689 785 847 688 769 735 b 638 799 674 793 656 799 b 42 799 497 801 199 803 b 32 765 11 799 7 783 b 518 442 186 660 400 518 b 519 404 539 428 540 421 b -8 33 403 325 189 183 b 3 0 -33 15 -28 0 z "},"y":{"ha":1788,"x_min":0,"x_max":0,"o":"m 590 -386 b 1072 -154 858 -385 936 -322 l 1211 21 l 1214 24 b 1867 756 1381 197 1632 476 b 1846 800 1886 779 1878 799 b 1414 799 1719 801 1553 801 b 1369 778 1397 799 1381 792 b 1021 376 1257 644 1129 496 b 953 371 1000 349 975 347 b 568 778 832 488 688 642 b 522 799 557 792 540 799 b 26 800 379 801 186 801 b 7 757 -6 799 -14 781 b 693 24 217 524 472 247 b 707 13 697 19 701 17 l 679 -19 b 499 -86 633 -71 613 -86 b 93 -82 319 -86 168 -81 b 60 -115 68 -82 61 -90 l 60 -343 b 93 -378 60 -368 68 -375 b 590 -386 182 -382 386 -386 z "},"ý":{"ha":1788,"x_min":0,"x_max":0,"o":"m 590 -386 b 1072 -154 858 -385 936 -322 l 1211 21 l 1214 24 b 1867 756 1381 197 1632 476 b 1846 800 1886 779 1878 799 b 1414 799 1719 801 1553 801 b 1369 778 1397 799 1381 792 b 1021 376 1257 644 1129 496 b 953 371 1000 349 975 347 b 568 778 832 488 688 642 b 522 799 557 792 540 799 b 26 800 379 801 186 801 b 7 757 -6 799 -14 781 b 693 24 217 524 472 247 b 707 13 697 19 701 17 l 679 -19 b 499 -86 633 -71 613 -86 b 93 -82 319 -86 168 -81 b 60 -115 68 -82 61 -90 l 60 -343 b 93 -378 60 -368 68 -375 b 590 -386 182 -382 386 -386 z m 786 868 l 931 868 b 975 890 949 868 964 876 l 1157 1121 b 1136 1164 1176 1144 1168 1164 l 943 1164 b 901 1140 926 1164 911 1156 l 760 915 b 786 868 743 889 754 868 z "},"ŷ":{"ha":1788,"x_min":0,"x_max":0,"o":"m 590 -386 b 1072 -154 858 -385 936 -322 l 1211 21 l 1214 24 b 1867 756 1381 197 1632 476 b 1846 800 1886 779 1878 799 b 1414 799 1719 801 1553 801 b 1369 778 1397 799 1381 792 b 1021 376 1257 644 1129 496 b 953 371 1000 349 975 347 b 568 778 832 488 688 642 b 522 799 557 792 540 799 b 26 800 379 801 186 801 b 7 757 -6 799 -14 781 b 693 24 217 524 472 247 b 707 13 697 19 701 17 l 679 -19 b 499 -86 633 -71 613 -86 b 93 -82 319 -86 168 -81 b 60 -115 68 -82 61 -90 l 60 -343 b 93 -378 60 -368 68 -375 b 590 -386 182 -382 386 -386 z m 792 1139 l 590 907 b 610 865 569 883 578 865 l 764 865 b 813 885 782 865 800 872 l 922 989 l 1029 885 b 1076 865 1042 872 1058 865 l 1233 865 b 1253 907 1264 865 1272 883 l 1054 1139 b 1008 1160 1043 1153 1026 1160 l 839 1160 b 792 1139 821 1160 804 1153 z "},"ÿ":{"ha":1788,"x_min":0,"x_max":0,"o":"m 590 -386 b 1072 -154 858 -385 936 -322 l 1211 21 l 1214 24 b 1867 756 1381 197 1632 476 b 1846 800 1886 779 1878 799 b 1414 799 1719 801 1553 801 b 1369 778 1397 799 1381 792 b 1021 376 1257 644 1129 496 b 953 371 1000 349 975 347 b 568 778 832 488 688 642 b 522 799 557 792 540 799 b 26 800 379 801 186 801 b 7 757 -6 799 -14 781 b 693 24 217 524 472 247 b 707 13 697 19 701 17 l 679 -19 b 499 -86 633 -71 613 -86 b 93 -82 319 -86 168 -81 b 60 -115 68 -82 61 -90 l 60 -343 b 93 -378 60 -368 68 -375 b 590 -386 182 -382 386 -386 z m 986 876 l 1181 876 b 1214 910 1206 876 1214 885 l 1214 1088 b 1181 1121 1214 1113 1207 1119 l 986 1121 b 953 1088 961 1121 954 1114 l 953 910 b 986 876 953 886 961 878 z m 664 876 l 858 876 b 892 910 883 876 890 885 l 892 1088 b 858 1121 892 1113 885 1119 l 664 1121 b 631 1088 639 1121 632 1114 l 631 910 b 664 876 631 886 639 878 z "},"ỳ":{"ha":1788,"x_min":0,"x_max":0,"o":"m 590 -386 b 1072 -154 858 -385 936 -322 l 1211 21 l 1214 24 b 1867 756 1381 197 1632 476 b 1846 800 1886 779 1878 799 b 1414 799 1719 801 1553 801 b 1369 778 1397 799 1381 792 b 1021 376 1257 644 1129 496 b 953 371 1000 349 975 347 b 568 778 832 488 688 642 b 522 799 557 792 540 799 b 26 800 379 801 186 801 b 7 757 -6 799 -14 781 b 693 24 217 524 472 247 b 707 13 697 19 701 17 l 679 -19 b 499 -86 633 -71 613 -86 b 93 -82 319 -86 168 -81 b 60 -115 68 -82 61 -90 l 60 -343 b 93 -378 60 -368 68 -375 b 590 -386 182 -382 386 -386 z m 1086 918 l 949 1143 b 907 1167 940 1158 925 1167 l 713 1167 b 692 1122 682 1167 672 1147 l 867 892 b 911 869 878 878 894 869 l 1060 869 b 1086 918 1092 869 1103 890 z "},"z":{"ha":1604,"x_min":0,"x_max":0,"o":"m 56 0 l 1556 0 b 1589 33 1581 0 1588 7 l 1589 242 b 1556 275 1589 267 1581 274 l 768 263 b 765 279 740 263 739 269 b 1539 496 944 342 1319 432 b 1571 539 1563 503 1569 513 l 1569 765 b 1536 799 1569 790 1561 797 b 58 799 1065 800 475 800 b 25 765 33 799 26 792 l 25 560 b 58 526 25 535 32 526 l 804 538 b 807 519 832 538 833 531 b 54 303 642 463 264 369 b 24 260 31 296 24 286 l 22 33 b 56 0 22 8 29 1 z "}," ":{"ha":278,"x_min":0,"x_max":0,"o":""},".":{"ha":607,"x_min":0,"x_max":0,"o":"m 51 328 b 51 32 50 246 50 113 b 86 -1 53 7 61 0 l 521 -1 b 556 32 546 -1 553 7 b 556 328 558 113 558 246 b 521 361 554 353 547 360 l 86 361 b 51 328 61 361 54 354 z "},",":{"ha":622,"x_min":0,"x_max":0,"o":"m 46 -297 l 239 -297 b 286 -278 257 -297 274 -290 l 547 -15 b 571 42 565 3 569 17 l 571 328 b 538 361 571 353 564 360 l 94 361 b 61 328 69 361 63 353 l 61 33 b 94 0 61 8 68 1 l 261 0 b 271 -24 286 0 289 -4 l 29 -258 b 46 -297 7 -281 14 -297 z "},":":{"ha":596,"x_min":0,"x_max":0,"o":"m 61 314 b 61 31 60 236 60 108 b 96 -1 63 7 71 0 l 531 -1 b 565 31 556 -1 563 7 b 565 314 568 108 568 236 b 531 346 564 339 557 344 l 96 346 b 61 314 71 346 64 339 z m 61 768 b 61 485 60 689 60 561 b 96 453 63 460 71 454 l 531 453 b 565 485 556 453 563 460 b 565 768 568 561 568 689 b 531 800 564 792 557 799 l 96 800 b 61 768 71 800 64 793 z "},";":{"ha":624,"x_min":0,"x_max":0,"o":"m 67 -285 l 260 -285 b 307 -265 278 -285 294 -278 l 568 -15 b 592 40 586 3 590 15 l 592 314 b 558 346 592 338 585 344 l 115 346 b 82 314 90 346 83 338 l 82 32 b 115 0 82 8 89 1 l 282 0 b 292 -22 307 0 310 -4 l 50 -247 b 67 -285 28 -268 35 -285 z m 88 767 b 88 482 86 688 86 560 b 122 450 89 458 97 451 l 557 450 b 592 482 582 450 589 458 b 592 767 594 560 594 688 b 557 799 590 790 583 797 l 122 799 b 88 767 97 799 90 792 z "},"!":{"ha":704,"x_min":0,"x_max":0,"o":"m 560 424 l 599 747 b 603 813 603 771 601 788 l 603 950 b 569 983 603 975 596 982 l 133 983 b 100 950 108 983 101 975 l 100 813 b 104 747 100 789 101 772 l 144 424 b 182 392 147 400 156 392 l 522 392 b 560 424 546 392 554 399 z m 603 33 l 603 286 b 569 319 603 311 596 318 l 133 319 b 100 286 108 319 101 313 l 100 33 b 133 0 100 8 107 1 l 569 0 b 603 33 594 0 601 7 z "},"¡":{"ha":706,"x_min":0,"x_max":0,"o":"m 600 53 l 561 376 b 524 408 556 401 547 408 l 183 408 b 146 376 157 408 149 400 l 106 53 b 101 -12 103 28 101 11 l 101 -150 b 135 -183 103 -175 110 -183 l 571 -183 b 604 -150 597 -182 604 -175 l 604 -12 b 600 53 603 13 604 29 z m 604 514 l 604 767 b 571 800 603 793 596 800 l 135 800 b 101 767 108 799 101 792 l 101 514 b 135 481 103 488 110 481 l 571 481 b 604 514 597 482 604 489 z "},"?":{"ha":1879,"x_min":0,"x_max":0,"o":"m 651 328 l 1060 328 b 1100 360 1085 328 1093 335 l 1099 351 b 1117 378 1101 363 1106 369 b 1338 406 1133 390 1165 394 b 1796 504 1667 425 1738 447 b 1868 699 1840 546 1868 622 b 1794 906 1868 801 1844 860 b 940 999 1718 974 1606 999 b 125 900 329 999 213 981 b 11 685 82 861 44 792 b 35 653 4 661 8 654 l 460 656 b 508 686 485 656 496 664 b 543 724 519 703 529 713 b 936 757 571 746 640 758 b 1346 731 1285 756 1322 747 b 1363 697 1358 721 1363 708 b 1350 668 1363 688 1358 675 b 1038 636 1332 653 1297 647 b 661 565 792 625 714 611 b 608 422 624 533 608 478 b 613 360 608 400 610 379 b 651 328 617 336 626 329 z m 604 0 l 1097 0 b 1131 33 1122 0 1129 7 b 1131 229 1132 89 1132 176 b 1097 263 1131 254 1122 263 l 604 263 b 571 229 581 263 572 256 b 571 33 569 174 569 97 b 604 0 571 8 579 1 z "},"¿":{"ha":1879,"x_min":0,"x_max":0,"o":"m 1228 471 l 819 471 b 779 439 794 471 786 464 l 781 447 b 763 421 778 436 774 429 b 542 393 746 408 714 404 b 83 294 213 374 142 351 b 11 100 39 253 11 176 b 85 -107 11 -3 35 -61 b 939 -200 161 -175 274 -200 b 1754 -101 1550 -200 1667 -182 b 1868 114 1797 -62 1835 7 b 1844 146 1875 138 1871 144 l 1419 143 b 1371 113 1394 143 1383 135 b 1336 75 1360 96 1350 86 b 943 42 1308 53 1239 40 b 533 68 594 43 557 51 b 517 101 521 78 517 90 b 529 131 517 111 521 124 b 842 163 547 146 582 151 b 1218 233 1088 174 1165 188 b 1271 376 1256 265 1271 321 b 1267 439 1271 399 1269 419 b 1228 471 1263 463 1253 469 z m 1275 799 l 782 799 b 749 765 757 799 750 792 b 749 569 747 710 747 622 b 782 536 749 544 757 536 l 1275 536 b 1308 569 1299 536 1307 543 b 1308 765 1310 625 1310 701 b 1275 799 1308 790 1300 797 z "},"•":{"ha":468,"x_min":0,"x_max":0,"o":"m 235 258 b 451 476 354 258 451 357 b 235 694 451 597 354 694 b 17 476 115 694 17 597 b 235 258 17 357 115 258 z "},"*":{"ha":854,"x_min":0,"x_max":0,"o":"m 292 190 l 401 353 b 457 353 417 376 442 376 l 564 190 b 608 182 576 169 588 168 l 796 315 b 800 358 815 329 817 339 l 682 486 b 696 539 664 507 669 531 l 871 594 b 889 636 894 603 899 611 l 801 829 b 757 844 792 851 782 856 l 600 769 b 558 799 574 758 556 771 l 569 958 b 539 992 571 983 564 990 l 314 992 b 283 958 290 992 283 983 l 296 799 b 256 771 299 771 281 758 l 100 846 b 56 829 76 856 67 853 l -35 639 b -17 599 -44 617 -40 607 l 163 539 b 175 488 189 531 194 507 l 54 360 b 58 315 38 342 39 332 l 246 182 b 292 190 265 168 276 169 z "},"/":{"ha":751,"x_min":0,"x_max":0,"o":"m 821 1054 l 539 1054 b 499 1029 521 1054 507 1044 l -142 -253 b -111 -303 -156 -281 -142 -303 l 172 -303 b 213 -278 190 -303 204 -294 l 851 1004 b 821 1054 867 1032 853 1054 z "},"\\":{"ha":751,"x_min":0,"x_max":0,"o":"m 213 1054 l -69 1054 b -100 1004 -101 1054 -115 1032 l 539 -278 b 579 -303 547 -294 561 -303 l 863 -303 b 893 -253 893 -303 907 -281 l 253 1029 b 213 1054 244 1044 231 1054 z "},"-":{"ha":842,"x_min":0,"x_max":0,"o":"m 18 565 b 18 358 15 497 15 419 b 54 325 19 335 28 326 l 789 325 b 824 358 814 325 821 333 b 824 564 826 422 826 497 b 789 597 822 589 814 596 l 53 599 b 18 565 29 599 21 592 z "},"–":{"ha":899,"x_min":0,"x_max":0,"o":"m 18 619 b 18 413 17 549 17 481 b 53 379 19 388 28 381 l 844 379 b 879 413 869 379 878 388 b 879 618 881 481 881 547 b 844 651 878 643 871 650 l 53 653 b 18 619 28 653 21 644 z "},"—":{"ha":1564,"x_min":0,"x_max":0,"o":"m 18 578 b 18 358 17 507 17 428 b 53 325 19 335 26 326 l 1511 325 b 1546 358 1536 325 1543 333 b 1546 576 1547 426 1547 504 b 1511 610 1544 601 1538 608 l 53 611 b 18 578 28 611 21 603 z "},"(":{"ha":642,"x_min":0,"x_max":0,"o":"m 297 -369 l 558 -369 b 576 -340 583 -369 588 -364 b 443 304 483 -147 443 54 b 578 953 443 557 482 760 b 558 983 589 975 585 982 l 299 983 b 254 961 281 983 265 975 b 56 307 119 771 56 553 b 254 -347 56 65 118 -154 b 297 -369 264 -361 279 -369 z "},")":{"ha":642,"x_min":0,"x_max":0,"o":"m 344 985 l 83 985 b 65 956 58 985 54 979 b 199 311 158 763 199 561 b 64 -337 199 58 160 -144 b 83 -368 53 -360 57 -367 l 343 -368 b 388 -346 361 -368 376 -360 b 586 308 522 -156 586 63 b 388 963 586 550 524 769 b 344 985 378 976 363 985 z "},"{":{"ha":736,"x_min":0,"x_max":0,"o":"m 560 -272 l 679 -272 b 713 -239 704 -272 711 -265 l 713 -46 b 679 -12 713 -21 706 -14 l 658 -12 b 554 92 588 -12 554 14 l 554 146 b 431 354 554 276 494 325 b 431 394 404 365 404 382 b 554 594 494 426 554 474 l 554 610 b 658 724 554 679 582 724 l 679 724 b 713 757 704 724 711 731 l 713 950 b 679 983 713 975 706 982 l 560 983 b 138 699 246 983 138 879 l 138 675 b 49 519 138 613 115 550 b 17 476 25 513 18 501 l 17 279 b 47 235 17 254 24 244 b 138 67 135 197 138 142 l 138 -1 b 560 -272 138 -192 267 -272 z "},"}":{"ha":736,"x_min":0,"x_max":0,"o":"m 57 -272 l 176 -272 b 599 -1 469 -272 599 -192 l 599 67 b 689 235 599 142 601 197 b 719 279 713 244 719 254 l 719 476 b 688 519 718 501 711 513 b 599 675 621 550 599 613 l 599 699 b 176 983 599 879 490 983 l 57 983 b 24 950 31 982 24 975 l 24 757 b 57 724 25 731 32 724 l 78 724 b 182 610 154 724 182 679 l 182 594 b 306 394 182 474 242 426 b 306 354 332 382 332 365 b 182 146 242 325 182 276 l 182 92 b 78 -12 182 14 149 -12 l 57 -12 b 24 -46 31 -14 24 -21 l 24 -239 b 57 -272 25 -265 32 -272 z "},"[":{"ha":583,"x_min":0,"x_max":0,"o":"m 532 -190 l 532 -33 b 499 0 532 -8 525 -1 l 410 0 b 376 33 385 0 378 7 l 376 726 b 410 760 376 750 383 758 l 496 760 b 529 793 521 760 529 767 l 529 950 b 496 983 529 975 522 982 l 133 983 b 100 950 108 983 101 975 l 100 -190 b 133 -224 100 -215 107 -222 l 499 -224 b 532 -190 524 -224 531 -217 z "},"]":{"ha":558,"x_min":0,"x_max":0,"o":"m 26 -33 l 26 -190 b 60 -224 28 -217 35 -224 l 425 -224 b 458 -190 451 -222 458 -215 l 458 950 b 425 983 457 975 450 983 l 63 983 b 29 950 36 982 29 975 l 29 793 b 63 760 29 767 38 760 l 149 760 b 182 726 175 758 182 750 l 182 33 b 149 0 181 7 174 0 l 60 0 b 26 -33 33 -1 26 -8 z "},"“":{"ha":1169,"x_min":0,"x_max":0,"o":"m 551 982 l 358 982 b 311 963 340 982 324 975 l 50 700 b 26 643 32 682 28 668 l 26 357 b 60 324 26 332 33 325 l 503 324 b 536 357 528 324 535 332 l 536 651 b 503 685 536 676 529 683 l 336 685 b 326 708 311 685 308 689 l 568 943 b 551 982 590 965 583 982 z m 1124 982 l 931 982 b 883 963 913 982 896 975 l 622 700 b 599 643 604 682 600 668 l 599 357 b 632 324 599 332 606 325 l 1075 324 b 1108 357 1100 324 1107 332 l 1108 651 b 1075 685 1108 676 1101 683 l 908 685 b 899 708 883 685 881 689 l 1140 943 b 1124 982 1163 965 1156 982 z "},"”":{"ha":1144,"x_min":0,"x_max":0,"o":"m 606 326 l 799 326 b 846 346 817 326 833 333 l 1107 608 b 1131 665 1125 626 1129 640 l 1131 951 b 1097 985 1131 976 1124 983 l 654 985 b 621 951 629 985 622 976 l 621 657 b 654 624 621 632 628 625 l 821 624 b 831 600 846 624 849 619 l 589 365 b 606 326 567 343 574 326 z m 33 326 l 226 326 b 274 346 244 326 261 333 l 535 608 b 558 665 553 626 557 640 l 558 951 b 525 985 558 976 551 983 l 82 985 b 49 951 57 985 50 976 l 49 657 b 82 624 49 632 56 625 l 249 624 b 258 600 274 624 276 619 l 17 365 b 33 326 -6 343 1 326 z "},"‘":{"ha":597,"x_min":0,"x_max":0,"o":"m 551 982 l 358 982 b 311 963 340 982 324 975 l 50 700 b 26 643 32 682 28 668 l 26 357 b 60 324 26 332 33 325 l 503 324 b 536 357 528 324 535 332 l 536 651 b 503 685 536 676 529 683 l 336 685 b 326 708 311 685 308 689 l 568 943 b 551 982 590 965 583 982 z "},"’":{"ha":597,"x_min":0,"x_max":0,"o":"m 46 325 l 239 325 b 286 344 257 325 274 332 l 547 607 b 571 664 565 625 569 639 l 571 950 b 538 983 571 975 564 982 l 94 983 b 61 950 69 983 63 975 l 61 656 b 94 622 61 631 68 624 l 261 622 b 271 599 286 622 289 618 l 29 364 b 46 325 7 342 14 325 z "},"\"":{"ha":771,"x_min":0,"x_max":0,"o":"m 324 983 l 61 983 b 28 950 36 983 29 975 l 28 804 b 31 738 28 779 29 764 l 54 508 b 90 475 56 483 64 476 l 293 475 b 331 508 318 475 326 482 l 353 738 b 356 804 356 763 354 778 l 356 950 b 324 983 356 975 349 982 z m 711 983 l 449 983 b 415 950 424 983 417 975 l 415 804 b 418 738 415 779 417 764 l 442 508 b 478 475 443 483 451 476 l 681 475 b 717 508 706 475 713 482 l 740 738 b 743 804 743 763 742 778 l 743 950 b 711 983 743 975 736 982 z "},"'":{"ha":386,"x_min":0,"x_max":0,"o":"m 325 983 l 61 983 b 28 950 36 983 29 975 l 28 804 b 31 738 28 779 29 764 l 54 508 b 90 475 56 483 64 476 l 294 475 b 332 508 319 475 328 482 l 356 738 b 358 804 358 763 357 778 l 358 950 b 325 983 358 975 351 982 z "},"@":{"ha":2175,"x_min":0,"x_max":0,"o":"m 1097 -167 b 1904 -119 1556 -167 1763 -146 b 1911 -99 1908 -118 1911 -111 l 1911 -56 b 1889 -40 1911 -42 1903 -37 b 1097 -86 1768 -67 1574 -86 b 260 21 397 -86 328 -47 b 149 414 189 93 149 222 b 254 789 149 597 186 721 b 1097 890 322 857 397 890 b 1939 789 1781 890 1869 858 b 2028 414 1996 731 2028 604 b 1918 122 2028 189 1985 122 b 1836 210 1861 122 1836 138 l 1838 413 b 1832 742 1838 532 1838 629 b 1797 775 1831 765 1822 774 l 1446 775 b 1408 742 1421 775 1413 767 l 1407 733 b 1357 706 1404 706 1382 693 b 914 794 1232 771 1233 794 b 360 714 519 794 419 771 b 269 411 304 660 269 556 b 361 93 269 258 304 147 b 876 17 421 35 481 17 b 1317 65 1186 17 1232 22 b 1414 107 1375 93 1392 107 b 1461 78 1435 107 1447 92 b 1793 11 1513 29 1568 11 b 2113 414 2024 11 2113 65 b 2003 847 2113 628 2075 775 b 1097 971 1924 926 1797 971 b 190 846 381 971 268 925 b 63 414 108 764 63 619 b 194 -37 63 200 110 49 b 1097 -167 272 -117 381 -167 z m 1051 264 b 733 299 803 264 761 271 b 704 404 715 315 704 351 b 739 507 704 451 718 488 b 1050 544 768 533 817 544 b 1369 489 1275 544 1328 526 b 1408 403 1401 461 1408 438 b 1368 315 1408 371 1397 340 b 1051 264 1329 281 1282 264 z "},"&":{"ha":1915,"x_min":0,"x_max":0,"o":"m 833 -18 b 1288 39 1200 -18 1157 -6 b 1379 31 1315 49 1354 44 l 1414 13 b 1465 0 1429 4 1447 0 l 1897 0 b 1910 35 1929 0 1933 15 l 1640 246 l 1853 482 b 1835 524 1874 504 1867 524 l 1397 526 b 1351 506 1379 526 1364 519 l 1279 426 l 644 660 b 615 693 628 667 615 679 b 625 722 615 703 615 713 b 921 743 642 739 663 743 b 1294 694 1229 743 1264 731 l 1315 669 b 1368 642 1331 649 1342 643 l 1768 638 b 1792 669 1793 638 1799 644 b 1672 881 1758 768 1715 839 b 926 1003 1593 960 1492 1003 b 174 908 363 1003 253 985 b 114 740 132 868 114 806 b 190 576 114 676 140 622 b 188 519 213 560 211 535 b 42 290 68 443 42 379 b 113 78 42 213 56 132 b 833 -18 188 6 322 -17 z m 771 243 b 544 275 593 243 561 258 b 528 318 531 289 529 304 b 547 371 526 338 532 356 b 600 379 563 389 575 388 l 901 292 b 904 256 928 283 929 268 b 771 243 874 247 832 243 z "},"©":{"ha":2235,"x_min":0,"x_max":0,"o":"m 1125 -29 b 2046 96 1869 -29 1972 22 b 2178 504 2117 168 2178 297 b 2046 911 2178 711 2117 839 b 1125 1036 1972 988 1869 1036 b 192 911 368 1036 265 988 b 57 504 121 839 57 711 b 192 96 57 297 121 168 b 1125 -29 265 21 368 -29 z m 1125 35 b 243 140 383 35 307 76 b 126 504 186 197 126 307 b 243 867 126 700 186 811 b 1125 972 307 932 383 972 b 1994 867 1854 972 1931 932 b 2108 504 2051 811 2108 700 b 1994 140 2108 307 2051 197 b 1125 35 1931 76 1854 35 z m 1093 143 b 1856 222 1671 143 1772 154 b 1950 414 1894 254 1931 314 b 1922 446 1954 436 1949 443 b 1519 456 1803 456 1667 456 b 1471 429 1494 456 1483 449 b 1439 399 1464 419 1453 410 b 1097 367 1413 379 1353 367 b 781 400 865 367 806 379 b 742 503 756 419 743 454 b 781 614 740 551 754 592 b 1097 644 806 635 872 644 b 1436 611 1375 644 1408 633 b 1464 579 1447 603 1456 590 b 1513 553 1475 560 1486 553 b 1921 553 1639 551 1799 553 b 1951 582 1946 553 1953 560 b 1851 789 1939 661 1900 749 b 1093 865 1775 854 1671 865 b 385 793 574 865 457 853 b 281 503 318 738 281 635 b 385 219 281 374 318 276 b 1093 143 460 157 571 143 z "},"®":{"ha":786,"x_min":0,"x_max":0,"o":"m 396 556 b 724 604 650 556 693 575 b 772 774 751 633 772 686 b 724 940 772 860 751 911 b 396 990 693 971 650 990 b 65 940 139 990 94 971 b 14 774 36 911 14 860 b 65 606 14 686 36 633 b 396 556 94 575 140 556 z m 396 604 b 107 642 163 604 128 618 b 71 774 83 664 71 711 b 107 904 71 835 83 881 b 396 942 128 926 163 942 b 681 904 626 942 658 926 b 715 774 703 882 715 835 b 681 642 715 710 703 663 b 396 604 658 618 626 604 z m 169 647 l 293 647 b 304 660 300 647 304 651 b 304 707 304 675 303 690 l 454 707 b 489 700 474 707 482 706 b 494 681 493 694 494 686 l 494 664 b 508 647 494 654 497 647 l 624 647 b 638 661 633 647 638 653 l 638 697 b 621 743 638 717 632 733 b 608 758 613 751 608 751 b 628 782 608 767 617 771 b 644 824 639 792 644 806 b 628 875 644 844 639 864 b 496 896 611 892 593 896 l 169 896 b 158 886 161 896 158 894 b 158 657 157 819 157 718 b 169 647 158 650 163 647 z m 442 774 l 303 774 l 303 826 l 440 826 b 492 819 479 826 485 825 b 497 800 496 815 497 810 b 490 783 497 792 494 788 b 442 774 486 779 479 774 z "},"™":{"ha":1199,"x_min":0,"x_max":0,"o":"m 214 711 l 328 711 b 339 719 335 711 339 713 l 336 900 l 515 899 b 529 907 522 899 529 899 b 526 975 529 921 526 950 b 514 983 525 981 521 983 l 19 983 b 7 974 13 983 7 983 l 4 907 b 15 899 4 900 8 899 l 206 900 l 204 719 b 214 711 204 713 208 711 z m 571 711 l 660 711 b 669 721 665 711 669 713 l 668 856 b 674 864 668 861 671 864 b 683 857 679 864 681 861 b 788 719 714 813 749 771 b 801 711 793 714 794 711 l 904 711 b 917 719 910 711 913 714 l 1021 860 b 1029 867 1024 864 1025 867 b 1036 860 1033 867 1036 864 l 1036 719 b 1046 711 1036 714 1040 711 l 1158 711 b 1168 721 1164 711 1168 711 b 1168 971 1169 793 1168 899 b 1158 983 1168 982 1164 983 l 1008 983 b 993 975 1000 983 997 982 b 886 825 965 936 917 871 b 878 819 883 822 882 819 b 869 826 874 819 872 822 b 768 974 826 885 804 921 b 750 983 763 982 760 983 l 574 983 b 564 972 567 983 564 981 b 563 721 563 899 561 794 b 571 711 563 713 565 711 z "},"$":{"ha":1886,"x_min":0,"x_max":0,"o":"m 851 -119 l 1081 -119 b 1114 -86 1106 -119 1113 -112 l 1113 6 b 1774 107 1583 10 1704 36 b 1843 328 1818 150 1843 229 b 1781 549 1843 428 1822 507 b 1094 644 1710 619 1663 640 b 538 671 586 647 560 650 b 524 710 526 683 524 697 b 539 747 524 724 528 739 b 960 767 564 763 586 767 b 1332 733 1275 767 1311 754 l 1339 725 b 1389 699 1351 706 1364 700 l 1811 700 b 1836 731 1836 700 1842 707 b 1758 893 1814 808 1790 860 b 1115 990 1700 950 1624 985 l 1115 1068 b 1083 1101 1115 1093 1108 1100 l 854 1101 b 821 1068 829 1101 822 1093 l 822 992 b 133 894 293 988 199 957 b 63 669 86 849 63 767 b 124 457 63 575 82 499 b 774 361 178 401 235 368 b 1374 329 1321 354 1350 351 b 1386 286 1383 317 1386 300 b 1376 250 1386 271 1383 258 b 931 228 1360 235 1317 228 b 581 257 635 228 601 238 l 565 279 b 517 307 553 300 540 306 l 69 307 b 46 276 46 307 40 300 b 128 110 68 200 92 146 b 819 4 196 43 296 10 l 818 -86 b 851 -119 818 -111 825 -119 z "},"¥":{"ha":2104,"x_min":0,"x_max":0,"o":"m 64 594 b 64 454 63 546 63 500 b 99 421 65 429 72 422 l 826 421 l 938 344 l 944 339 l 99 339 b 64 306 74 339 67 331 b 64 164 63 257 63 210 b 99 131 65 139 72 132 l 964 131 l 964 33 b 997 -1 964 8 972 1 b 1438 -1 1106 -3 1318 -3 b 1472 33 1463 0 1471 7 l 1471 131 l 2043 131 b 2078 164 2067 131 2075 139 b 2078 306 2081 211 2081 256 b 2043 339 2076 329 2068 338 l 1467 339 b 1488 364 1471 347 1476 356 l 1567 421 l 2043 421 b 2078 454 2067 421 2075 428 b 2078 594 2081 500 2081 546 b 2043 628 2076 619 2068 626 l 1853 628 b 2306 951 2003 736 2153 844 b 2294 985 2331 969 2326 983 b 1800 983 2136 988 1922 988 b 1749 967 1782 983 1764 978 b 1289 664 1597 864 1440 767 b 1207 661 1261 643 1233 642 b 726 968 1085 742 881 868 b 675 983 711 978 693 983 b 88 983 529 986 289 986 b 75 949 56 983 50 968 b 524 628 222 839 376 729 l 99 628 b 64 594 74 628 67 621 z "},"+":{"ha":1378,"x_min":0,"x_max":0,"o":"m 17 618 b 17 399 15 547 15 468 b 51 365 18 375 26 367 l 510 365 l 510 53 b 543 18 510 28 518 21 l 818 18 b 851 53 843 19 850 26 l 851 365 l 1326 365 b 1361 399 1351 365 1358 374 b 1361 617 1363 467 1363 544 b 1326 650 1360 642 1353 649 l 853 650 l 853 925 b 819 958 853 950 844 957 b 543 958 729 960 629 960 b 510 925 518 958 511 951 l 510 651 l 51 651 b 17 618 26 651 19 643 z "},"%":{"ha":2656,"x_min":0,"x_max":0,"o":"m 585 492 b 1115 563 968 496 1058 515 b 1172 747 1151 594 1172 653 b 1115 932 1172 836 1151 901 b 585 1003 1056 983 964 1003 b 63 932 215 1003 122 983 b 4 746 25 900 4 840 b 61 563 4 658 24 594 b 585 492 126 507 219 489 z m 585 675 b 372 699 417 675 388 685 b 351 747 358 708 351 724 b 372 797 351 767 357 786 b 585 819 388 811 413 819 b 804 797 756 819 788 811 b 824 747 817 788 824 768 b 804 699 824 724 815 708 b 585 675 788 683 753 675 z m 2264 983 l 1940 983 b 1889 968 1922 983 1904 978 l 390 29 b 399 0 365 14 368 0 l 725 0 b 775 15 743 0 760 6 l 2272 954 b 2264 983 2299 969 2294 983 z m 2064 -28 b 2594 43 2447 -24 2538 -4 b 2651 228 2631 75 2651 133 b 2594 413 2651 317 2631 382 b 2064 483 2535 464 2443 483 b 1542 413 1694 483 1601 464 b 1483 226 1504 381 1483 321 b 1540 43 1483 139 1503 75 b 2064 -28 1606 -12 1699 -31 z m 2064 156 b 1851 179 1896 156 1867 165 b 1831 228 1838 189 1831 204 b 1851 278 1831 247 1836 267 b 2064 300 1867 292 1892 300 b 2283 278 2235 300 2267 292 b 2303 228 2296 268 2303 249 b 2283 179 2303 204 2294 189 b 2064 156 2267 164 2232 156 z "},"̈":{"ha":0,"x_min":0,"x_max":0,"o":"m 360 876 l 554 876 b 588 910 579 876 588 885 l 588 1088 b 554 1121 588 1113 581 1119 l 360 1121 b 326 1088 335 1121 328 1114 l 326 910 b 360 876 326 886 335 878 z m 38 876 l 232 876 b 265 910 257 876 264 885 l 265 1088 b 232 1121 265 1113 258 1119 l 38 1121 b 4 1088 13 1121 6 1114 l 4 910 b 38 876 4 886 13 878 z "},"̇":{"ha":0,"x_min":0,"x_max":0,"o":"m 257 1132 l 38 1132 b 4 1099 13 1132 6 1125 l 4 908 b 38 875 4 885 13 876 l 257 875 b 290 908 282 875 289 883 l 290 1099 b 257 1132 290 1124 282 1131 z "},"̀":{"ha":0,"x_min":0,"x_max":0,"o":"m 414 918 l 276 1143 b 235 1167 268 1158 253 1167 l 40 1167 b 19 1122 10 1167 0 1147 l 194 892 b 239 869 206 878 222 869 l 388 869 b 414 918 419 869 431 890 z "},"́":{"ha":0,"x_min":0,"x_max":0,"o":"m 46 868 l 190 868 b 235 890 208 868 224 876 l 417 1121 b 396 1164 436 1144 428 1164 l 203 1164 b 161 1140 186 1164 171 1156 l 19 915 b 46 868 3 889 14 868 z "},"̋":{"ha":0,"x_min":0,"x_max":0,"o":"m 46 864 l 181 864 b 224 886 199 864 214 872 l 386 1115 b 363 1161 404 1140 393 1161 l 182 1161 b 140 1136 164 1161 149 1151 l 17 913 b 46 864 1 885 14 864 z m 346 864 l 479 864 b 525 885 497 864 513 871 l 715 1118 b 696 1161 736 1142 726 1161 l 500 1161 b 457 1138 482 1161 467 1153 l 319 911 b 346 864 303 885 314 864 z "},"̂":{"ha":0,"x_min":0,"x_max":0,"o":"m 181 1139 l -21 907 b -1 865 -42 883 -33 865 l 153 865 b 201 885 171 865 189 872 l 311 989 l 418 885 b 465 865 431 872 447 865 l 622 865 b 642 907 653 865 661 883 l 443 1139 b 397 1160 432 1153 415 1160 l 228 1160 b 181 1139 210 1160 193 1153 z "},"̌":{"ha":0,"x_min":0,"x_max":0,"o":"m 17 1113 l 218 881 b 265 860 231 867 247 860 l 435 860 b 481 881 453 860 469 867 l 679 1113 b 660 1154 699 1136 690 1154 l 503 1154 b 456 1135 485 1154 468 1147 l 349 1031 l 239 1135 b 190 1154 226 1147 208 1154 l 36 1154 b 17 1113 4 1154 -4 1136 z "},"̆":{"ha":0,"x_min":0,"x_max":0,"o":"m 364 865 b 722 1106 557 865 689 971 b 694 1138 726 1129 721 1136 l 514 1138 b 469 1107 489 1138 479 1131 b 364 1043 450 1065 414 1043 b 257 1107 313 1043 276 1065 b 213 1138 249 1129 239 1136 l 33 1138 b 6 1106 8 1138 3 1131 b 364 865 35 972 174 865 z "},"̊":{"ha":0,"x_min":0,"x_max":0,"o":"m 250 854 b 494 1078 386 854 494 951 b 250 1300 494 1204 386 1301 b 4 1078 113 1301 4 1204 b 250 854 4 951 113 854 z m 250 1013 b 182 1078 213 1013 182 1040 b 250 1143 182 1114 213 1143 b 317 1078 288 1143 317 1114 b 250 1013 317 1040 288 1013 z "},"̃":{"ha":0,"x_min":0,"x_max":0,"o":"m 514 853 b 661 901 575 853 619 871 b 682 946 675 913 682 928 l 682 1076 b 640 1096 682 1107 664 1115 b 515 1056 603 1069 565 1057 b 358 1093 464 1056 421 1071 b 169 1135 300 1113 239 1135 b 11 1082 108 1135 54 1117 b -8 1035 -1 1069 -8 1053 l -8 907 b 33 888 -8 875 10 867 b 163 931 72 918 113 931 b 319 894 211 931 254 915 b 514 853 379 875 443 853 z "},"̄":{"ha":0,"x_min":0,"x_max":0,"o":"m 621 1101 l 38 1101 b 4 1068 13 1101 6 1094 l 4 928 b 38 894 4 903 13 896 l 621 894 b 654 928 646 894 653 901 l 654 1068 b 621 1101 654 1093 646 1100 z "},"̒":{"ha":0,"x_min":0,"x_max":0,"o":"m 283 1272 l 183 1272 b 138 1251 165 1272 149 1265 l 33 1119 b 13 1060 18 1100 14 1086 l 13 904 b 46 871 13 879 21 872 l 272 871 b 306 904 297 871 304 878 l 306 1079 b 272 1113 306 1104 299 1111 l 189 1113 l 300 1232 b 283 1272 322 1254 314 1272 z "},"̦":{"ha":0,"x_min":0,"x_max":0,"o":"m 36 -454 l 136 -454 b 182 -433 154 -454 171 -447 l 286 -301 b 307 -242 301 -282 306 -268 l 307 -86 b 274 -53 307 -61 299 -54 l 47 -53 b 14 -86 22 -53 15 -60 l 14 -261 b 47 -294 14 -286 21 -293 l 131 -294 l 19 -414 b 36 -454 -3 -436 6 -454 z "},"̧":{"ha":0,"x_min":0,"x_max":0,"o":"m 311 25 l 168 25 b 128 1 150 25 136 17 l 6 -229 b 35 -279 -10 -257 4 -279 l 219 -279 b 258 -253 238 -279 251 -269 l 347 -26 b 311 25 358 3 343 25 z "},"̨":{"ha":0,"x_min":0,"x_max":0,"o":"m 218 -321 l 307 -321 b 340 -287 332 -321 339 -314 l 340 -168 b 307 -135 340 -143 333 -136 l 258 -133 b 206 -106 214 -132 206 -128 b 289 0 206 -75 226 -57 l 251 72 b -26 -151 96 29 -26 -22 b 218 -321 -26 -264 81 -321 z "},"̵":{"ha":0,"x_min":0,"x_max":0,"o":"m 38 347 l 968 347 b 1001 381 993 347 1000 354 l 1001 526 b 968 560 1001 551 994 558 l 38 560 b 4 526 13 560 6 551 l 4 381 b 38 347 4 356 13 349 z "},"̷":{"ha":0,"x_min":0,"x_max":0,"o":"m -31 378 l -31 233 b 15 210 -31 203 -10 192 l 550 578 b 572 621 565 588 572 603 l 572 764 b 526 789 572 796 553 806 l -7 421 b -31 378 -22 411 -31 396 z "},"̸":{"ha":0,"x_min":0,"x_max":0,"o":"m 1033 1179 l 911 1179 b 865 1158 893 1179 876 1171 l -311 -133 b -292 -175 -332 -157 -324 -175 l -165 -175 b -118 -154 -147 -175 -131 -168 l 1051 1138 b 1033 1179 1074 1161 1065 1179 z "},"¨":{"ha":589,"x_min":0,"x_max":0,"o":"m 360 876 l 554 876 b 588 910 579 876 588 885 l 588 1088 b 554 1121 588 1113 581 1119 l 360 1121 b 326 1088 335 1121 328 1114 l 326 910 b 360 876 326 886 335 878 z m 38 876 l 232 876 b 265 910 257 876 264 885 l 265 1088 b 232 1121 265 1113 258 1119 l 38 1121 b 4 1088 13 1121 6 1114 l 4 910 b 38 876 4 886 13 878 z "},"˙":{"ha":292,"x_min":0,"x_max":0,"o":"m 257 1132 l 38 1132 b 4 1099 13 1132 6 1125 l 4 908 b 38 875 4 885 13 876 l 257 875 b 290 908 282 875 289 883 l 290 1099 b 257 1132 290 1124 282 1131 z "},"`":{"ha":431,"x_min":0,"x_max":0,"o":"m 414 918 l 276 1143 b 235 1167 268 1158 253 1167 l 40 1167 b 19 1122 10 1167 0 1147 l 194 892 b 239 869 206 878 222 869 l 388 869 b 414 918 419 869 431 890 z "},"´":{"ha":436,"x_min":0,"x_max":0,"o":"m 46 868 l 190 868 b 235 890 208 868 224 876 l 417 1121 b 396 1164 436 1144 428 1164 l 203 1164 b 161 1140 186 1164 171 1156 l 19 915 b 46 868 3 889 14 868 z "},"˝":{"ha":732,"x_min":0,"x_max":0,"o":"m 46 864 l 181 864 b 224 886 199 864 214 872 l 386 1115 b 363 1161 404 1140 393 1161 l 182 1161 b 140 1136 164 1161 149 1151 l 17 913 b 46 864 1 885 14 864 z m 346 864 l 479 864 b 525 885 497 864 513 871 l 715 1118 b 696 1161 736 1142 726 1161 l 500 1161 b 457 1138 482 1161 467 1153 l 319 911 b 346 864 303 885 314 864 z "},"ˆ":{"ha":614,"x_min":0,"x_max":0,"o":"m 181 1139 l -21 907 b -1 865 -42 883 -33 865 l 153 865 b 201 885 171 865 189 872 l 311 989 l 418 885 b 465 865 431 872 447 865 l 622 865 b 642 907 653 865 661 883 l 443 1139 b 397 1160 432 1153 415 1160 l 228 1160 b 181 1139 210 1160 193 1153 z "},"ˇ":{"ha":693,"x_min":0,"x_max":0,"o":"m 17 1113 l 218 881 b 265 860 231 867 247 860 l 435 860 b 481 881 453 860 469 867 l 679 1113 b 660 1154 699 1136 690 1154 l 503 1154 b 456 1135 485 1154 468 1147 l 349 1031 l 239 1135 b 190 1154 226 1147 208 1154 l 36 1154 b 17 1113 4 1154 -4 1136 z "},"˘":{"ha":725,"x_min":0,"x_max":0,"o":"m 364 865 b 722 1106 557 865 689 971 b 694 1138 726 1129 721 1136 l 514 1138 b 469 1107 489 1138 479 1131 b 364 1043 450 1065 414 1043 b 257 1107 313 1043 276 1065 b 213 1138 249 1129 239 1136 l 33 1138 b 6 1106 8 1138 3 1131 b 364 865 35 972 174 865 z "},"˚":{"ha":496,"x_min":0,"x_max":0,"o":"m 250 854 b 494 1078 386 854 494 951 b 250 1300 494 1204 386 1301 b 4 1078 113 1301 4 1204 b 250 854 4 951 113 854 z m 250 1013 b 182 1078 213 1013 182 1040 b 250 1143 182 1114 213 1143 b 317 1078 288 1143 317 1114 b 250 1013 317 1040 288 1013 z "},"˜":{"ha":674,"x_min":0,"x_max":0,"o":"m 514 853 b 661 901 575 853 619 871 b 682 946 675 913 682 928 l 682 1076 b 640 1096 682 1107 664 1115 b 515 1056 603 1069 565 1057 b 358 1093 464 1056 421 1071 b 169 1135 300 1113 239 1135 b 11 1082 108 1135 54 1117 b -8 1035 -1 1069 -8 1053 l -8 907 b 33 888 -8 875 10 867 b 163 931 72 918 113 931 b 319 894 211 931 254 915 b 514 853 379 875 443 853 z "},"¯":{"ha":656,"x_min":0,"x_max":0,"o":"m 621 1101 l 38 1101 b 4 1068 13 1101 6 1094 l 4 928 b 38 894 4 903 13 896 l 621 894 b 654 928 646 894 653 901 l 654 1068 b 621 1101 654 1093 646 1100 z "},"¸":{"ha":485,"x_min":0,"x_max":0,"o":"m 311 25 l 168 25 b 128 1 150 25 136 17 l 6 -229 b 35 -279 -10 -257 4 -279 l 219 -279 b 258 -253 238 -279 251 -269 l 347 -26 b 311 25 358 3 343 25 z "},"˛":{"ha":322,"x_min":0,"x_max":0,"o":"m 218 -321 l 307 -321 b 340 -287 332 -321 339 -314 l 340 -168 b 307 -135 340 -143 333 -136 l 258 -133 b 206 -106 214 -132 206 -128 b 289 0 206 -75 226 -57 l 251 72 b -26 -151 96 29 -26 -22 b 218 -321 -26 -264 81 -321 z "},"⁄":{"ha":303,"x_min":0,"x_max":0,"o":"m 1088 983 l 764 983 b 713 968 746 983 728 978 l -786 29 b -778 0 -811 14 -808 0 l -451 0 b -401 15 -433 0 -417 6 l 1096 954 b 1088 983 1122 969 1118 983 z "}}}
